<?xml version="1.0" encoding="utf-8"?>
<!-- Generator: Adobe Illustrator 16.0.0, SVG Export Plug-In . SVG Version: 6.00 Build 0)  -->
<!DOCTYPE svg PUBLIC "-//W3C//DTD SVG 1.1//EN" "http://www.w3.org/Graphics/SVG/1.1/DTD/svg11.dtd">
<svg version="1.1" id="Layer_1" xmlns="http://www.w3.org/2000/svg" xmlns:xlink="http://www.w3.org/1999/xlink" x="0px" y="0px"
	 width="336px" height="84px" viewBox="-30.5 -15.5 336 84" enable-background="new -30.5 -15.5 336 84" xml:space="preserve">
<g>
	<path fill="#FFFFFF" d="M245.8,9.084c-2.021,0-3.716,1.503-3.716,3.432c0,1.929,1.695,3.482,3.716,3.482
		c0.915,0,1.793-0.363,2.44-1.011c0.646-0.647,1.011-1.525,1.011-2.44c0-0.916-0.364-1.793-1.011-2.44
		c-0.647-0.647-1.525-1.011-2.44-1.011V9.084z M81.504,43.031h-6.02V10.625h19.802v5.361H81.504v8.417h10.91v5.365h-10.91V43.031z
		 M95.754,31.941c0-6.914,5.177-11.381,11.431-11.381c6.208,0,11.431,4.467,11.431,11.381c0,6.914-5.177,11.477-11.431,11.477
		S95.754,38.855,95.754,31.941z M101.433,31.938c0,3.578,2.6,5.879,5.752,5.879v0.004c3.152,0,5.736-2.305,5.752-5.883
		c0-3.497-2.585-5.751-5.752-5.751C104.017,26.186,101.433,28.456,101.433,31.938z M149.292,12.656h-5.69v8.371h-3.996v4.609h3.996
		v17.359h5.69V25.636h4.659v-4.609h-4.659V12.656z M176.911,24.698c2.06-3.62,5.161-4.138,6.901-4.138
		c5.315,0,8.467,3.432,8.486,9.878v12.558h-5.689V31.048c0-3.151-1.787-4.893-4.142-4.893c-2.585,0-4.468,1.786-4.468,5.127v11.714
		h-5.752v-12.09c-0.049-3.057-1.79-4.751-4.045-4.751c-2.348,0-4.602,1.365-4.602,5.127v11.714h-5.752V21.028h5.752v3.248
		c1.224-2.681,4.233-3.67,6.301-3.67C173.383,20.794,175.688,22.014,176.911,24.698z M214.193,23.759
		c-1.598-2.447-4.842-3.198-6.816-3.198c-5.787,0-11.197,4.372-11.197,11.428c0,7.055,5.41,11.43,11.197,11.43
		c2.162,0,5.406-0.988,6.816-3.244v2.822h5.752V21.028h-5.752V23.759z M208.174,37.916c-3.152,0-6.066-2.4-6.066-5.928
		c0-3.528,2.914-5.925,6.066-5.925c3.01,0,6.02,2.117,6.02,5.925C214.193,35.795,211.279,37.916,208.174,37.916z M228.255,12.656
		h5.69v8.371h4.66v4.609h-4.66v17.359h-5.69V25.636h-3.995v-4.609h3.995V12.656z M242.932,21.029h5.69v21.965h-5.69V21.029z
		 M270.115,35.753c-0.537,0.697-1.229,1.261-2.02,1.644c-0.793,0.384-1.664,0.577-2.543,0.564c-3.199,0-6.158-2.445-6.158-6.02
		s2.959-5.833,6.158-5.833c0.875-0.021,1.745,0.165,2.537,0.54s1.486,0.931,2.025,1.623l4.563-3.451
		c-2.07-2.73-5.455-4.279-9.125-4.279c-6.301,0-11.854,4.467-11.854,11.381c0,6.914,5.553,11.523,11.854,11.523
		c3.715,0,7.104-1.6,9.172-4.326L270.115,35.753z M122.672,42.998V21.029h13.613v2.128c0,1.607-1.193,2.907-2.665,2.907h-5.196
		v16.934H122.672z"/>
	<path fill="#617BFF" d="M26.313,0h13.156h13.156v13.156H39.469H26.313H13.156v13.157v0.843v12.236v0.076v13.08H0v-13.08v-0.076
		V27.156v-0.843V13.156V0h13.156H26.313z M39.468,39.393h-13.08v-13.08h26.229v13.54c0,3.366-1.337,6.594-3.716,8.975
		c-2.379,2.381-5.607,3.72-8.973,3.722h-0.46V39.393z"/>
</g>
</svg>
