<?xml version="1.0" encoding="utf-8"?>
<!-- Generator: Adobe Illustrator 16.0.0, SVG Export Plug-In . SVG Version: 6.00 Build 0)  -->
<!DOCTYPE svg PUBLIC "-//W3C//DTD SVG 1.1//EN" "http://www.w3.org/Graphics/SVG/1.1/DTD/svg11.dtd">
<svg version="1.1" id="Layer_1" xmlns="http://www.w3.org/2000/svg" xmlns:xlink="http://www.w3.org/1999/xlink" x="0px" y="0px"
	 width="238px" height="84px" viewBox="47.833 0 238 84" enable-background="new 47.833 0 238 84" xml:space="preserve">
<title>Artboard</title>
<desc>Created with Sketch.</desc>
<g id="Artboard">
	<g id="logo_dapper" transform="translate(0.000000, 4.000000)">
		<path id="Shape" fill="#902EF5" d="M249.489,23.936h8.073v3.845c1.197-2.647,3.597-4.476,7.189-4.476
			c5.554,0,8.582,3.846,8.582,8.828c0,1.197-0.128,2.46-0.443,3.72h-7.635c0.188-0.82,0.257-1.515,0.257-2.27
			c0-2.145-1.517-3.721-3.785-3.721c-2.529,0-4.165,1.703-4.165,4.731v19.232h-8.073V23.936z M230.402,47.522
			c3.853,0,6.061-1.956,6.944-5.107l6.876,2.709c-2.022,5.676-6.751,9.334-13.944,9.334c-9.211,0-15.835-6.181-15.835-15.763
			c0-8.514,5.931-15.389,14.888-15.389c8.265,0,13.879,5.171,13.879,13.432c0,1.325-0.125,2.522-0.378,3.658h-20.314
			c0.127,4.728,3.852,7.123,7.886,7.123L230.402,47.522L230.402,47.522z M229.332,29.799c-3.218,0-6.057,1.895-6.815,5.236h12.809
			c0,0,0.063-0.125,0.063-0.253C235.388,31.755,232.928,29.799,229.332,29.799z M177.447,23.936h7.761v4.477
			c2.304-3.175,5.979-5.069,9.901-5.107c8.076,0,14.07,6.241,14.07,15.7c0,9.457-6.184,15.452-14.508,15.452
			c-4.103,0-7.571-1.701-9.151-4.479v16.336h-8.074L177.447,23.936L177.447,23.936z M185.207,39.006
			c0,5.551,3.847,8.578,7.944,8.578c4.292,0,7.95-3.154,7.95-8.578c0-5.549-3.658-8.764-7.95-8.764
			C189.052,30.242,185.207,33.33,185.207,39.006z M140.448,23.936h7.758v4.477c2.307-3.175,5.982-5.07,9.907-5.107
			c8.072,0,14.067,6.241,14.067,15.7c0,9.457-6.185,15.452-14.51,15.452c-4.103,0-7.57-1.701-9.148-4.479v16.336h-8.076
			L140.448,23.936L140.448,23.936z M148.207,39.006c0,5.551,3.85,8.578,7.95,8.578c4.291,0,7.948-3.154,7.948-8.578
			c0-5.549-3.658-8.764-7.948-8.764C152.056,30.242,148.207,33.33,148.207,39.006z M116.034,54.456c-5.048,0-9.842-3.404-9.842-9.27
			c0-6.619,4.922-9.584,11.67-9.584c1.703,0,3.408,0.19,5.109,0.63l2.651,0.634v-1.897c0-3.468-2.526-5.359-6.12-5.359
			c-3.721,0-5.866,2.082-6.497,4.984l-7.002-1.895c1.575-5.547,6.117-9.396,13.564-9.396c9.144,0,13.752,4.416,13.752,12.111v18.414
			h-7.381v-4.603C124.043,52.566,121.08,54.456,116.034,54.456z M119.248,48.274c3.598,0,6.374-1.953,6.374-5.483v-0.253
			l-1.83-0.566c-1.831-0.568-3.281-0.884-4.667-0.884c-2.84,0-4.734,1.201-4.734,3.597C114.391,46.763,115.97,48.274,119.248,48.274
			z M62.667,53.827V9.685h17.032c14.827,0,22.9,9.143,22.9,22.388c0,12.421-8.201,21.757-22.708,21.757H62.667V53.827z
			 M71.185,17.376V46.07H79.7c9.778,0,14.383-6.306,14.383-13.999c0-8.703-4.732-14.694-14.508-14.694L71.185,17.376L71.185,17.376z
			"/>
	</g>
</g>
</svg>
