<?xml version="1.0" encoding="utf-8"?>
<!-- Generator: Adobe Illustrator 16.0.0, SVG Export Plug-In . SVG Version: 6.00 Build 0)  -->
<!DOCTYPE svg PUBLIC "-//W3C//DTD SVG 1.1//EN" "http://www.w3.org/Graphics/SVG/1.1/DTD/svg11.dtd">
<svg version="1.1" id="Layer_1" xmlns:ev="http://www.w3.org/2001/xml-events"
	 xmlns="http://www.w3.org/2000/svg" xmlns:xlink="http://www.w3.org/1999/xlink" x="0px" y="0px" width="336px" height="84px"
	 viewBox="0 0 336 84" enable-background="new 0 0 336 84" xml:space="preserve">
<g>
	<g>
		<path fill="#FFFFFF" d="M296.223,41.398c-1.727-1.141-3.631-1.952-5.432-2.969c-1.167-0.659-2.412-1.243-3.427-2.08
			c-1.727-1.421-1.369-4.214,0.432-5.432c2.588-1.726,6.875-0.762,7.331,2.765c0,0.077,0.077,0.126,0.153,0.126h3.907
			c0.104,0,0.18-0.077,0.151-0.178c-0.2-2.436-1.141-4.466-2.863-5.761c-1.649-1.242-3.527-1.901-5.532-1.901
			c-10.329,0-11.272,10.938-5.71,14.39c0.634,0.407,6.091,3.147,8.019,4.338c1.93,1.192,2.538,3.374,1.701,5.101
			c-0.761,1.573-2.74,2.663-4.722,2.542c-2.156-0.128-3.832-1.294-4.417-3.123c-0.102-0.33-0.152-0.965-0.152-1.243
			c0-0.076-0.077-0.152-0.152-0.152h-4.236c-0.076,0-0.152,0.078-0.152,0.152c0,3.071,0.762,4.774,2.842,6.32
			c1.953,1.473,4.086,2.081,6.295,2.081c5.787,0,8.783-3.273,9.394-6.675C300.182,46.372,299.19,43.379,296.223,41.398z"/>
		<path fill="#FFFFFF" d="M112.189,26.527h-1.879h-2.054c-0.077,0-0.127,0.051-0.152,0.101L104.626,38.1
			c-0.051,0.152-0.253,0.152-0.304,0l-3.474-11.473c-0.026-0.077-0.077-0.101-0.152-0.101H98.64h-1.878h-2.538
			c-0.076,0-0.152,0.076-0.152,0.152v29.289c0,0.076,0.078,0.152,0.152,0.152h4.239c0.076,0,0.152-0.076,0.152-0.152V33.708
			c0-0.177,0.254-0.203,0.305-0.051l3.502,11.549l0.253,0.813c0.025,0.076,0.076,0.103,0.152,0.103h3.25
			c0.076,0,0.125-0.053,0.152-0.103l0.253-0.813l3.502-11.549c0.051-0.177,0.304-0.126,0.304,0.051v22.26
			c0,0.077,0.077,0.152,0.153,0.152h4.239c0.076,0,0.152-0.077,0.152-0.152V26.68c0-0.077-0.077-0.152-0.152-0.152L112.189,26.527
			L112.189,26.527z"/>
		<path fill="#FFFFFF" d="M231.325,26.527c-0.077,0-0.128,0.051-0.153,0.101L227.695,38.1c-0.051,0.152-0.253,0.152-0.304,0
			l-3.475-11.473c-0.026-0.077-0.077-0.101-0.155-0.101h-6.445c-0.076,0-0.152,0.076-0.152,0.152v29.289
			c0,0.076,0.077,0.152,0.152,0.152h4.237c0.076,0,0.152-0.076,0.152-0.152V33.708c0-0.177,0.254-0.203,0.306-0.051l3.502,11.549
			l0.253,0.813c0.026,0.076,0.077,0.103,0.152,0.103h3.248c0.077,0,0.127-0.053,0.152-0.103l0.256-0.813l3.501-11.549
			c0.052-0.177,0.305-0.126,0.305,0.051v22.26c0,0.077,0.078,0.152,0.152,0.152h4.237c0.076,0,0.152-0.077,0.152-0.152V26.68
			c0-0.077-0.077-0.152-0.152-0.152L231.325,26.527L231.325,26.527z"/>
		<path fill="#FFFFFF" d="M176.656,26.527h-7.892h-4.238h-7.894c-0.076,0-0.152,0.076-0.152,0.152v3.654
			c0,0.077,0.077,0.152,0.152,0.152h7.74v25.482c0,0.076,0.076,0.152,0.153,0.152h4.238c0.076,0,0.153-0.076,0.153-0.152V30.485
			h7.738c0.077,0,0.151-0.077,0.151-0.152v-3.654C176.807,26.602,176.757,26.527,176.656,26.527z"/>
		<path fill="#FFFFFF" d="M201.656,56.12h3.859c0.102,0,0.177-0.103,0.152-0.203l-7.971-29.39c-0.025-0.077-0.076-0.101-0.152-0.101
			h-1.475h-2.588h-1.472c-0.076,0-0.126,0.05-0.152,0.101l-7.969,29.39c-0.026,0.101,0.051,0.203,0.152,0.203h3.857
			c0.077,0,0.128-0.051,0.152-0.103l2.308-8.552c0.024-0.076,0.076-0.103,0.152-0.103h8.53c0.074,0,0.125,0.052,0.151,0.103
			l2.306,8.552C201.528,56.069,201.604,56.12,201.656,56.12z M191.526,43.174l3.099-11.445c0.05-0.152,0.251-0.152,0.305,0
			l3.096,11.445c0.025,0.103-0.051,0.205-0.152,0.205h-6.194C191.577,43.379,191.503,43.276,191.526,43.174z"/>
		<path fill="#FFFFFF" d="M267.441,56.12h3.859c0.102,0,0.178-0.103,0.152-0.203l-7.971-29.39c-0.025-0.077-0.076-0.101-0.151-0.101
			h-1.474h-2.587h-1.473c-0.077,0-0.127,0.05-0.153,0.101l-7.972,29.39c-0.026,0.101,0.055,0.203,0.154,0.203h3.858
			c0.076,0,0.126-0.051,0.152-0.103l2.307-8.552c0.025-0.076,0.077-0.103,0.151-0.103h8.53c0.076,0,0.126,0.052,0.152,0.103
			l2.307,8.552C267.312,56.069,267.363,56.12,267.441,56.12z M257.314,43.174l3.096-11.445c0.055-0.152,0.254-0.152,0.309,0
			l3.096,11.445c0.024,0.103-0.051,0.205-0.152,0.205h-6.195C257.365,43.379,257.29,43.276,257.314,43.174z"/>
		<path fill="#FFFFFF" d="M132.035,51.78v-9.086c0-0.076,0.077-0.152,0.152-0.152h11.294c0.076,0,0.152-0.076,0.152-0.153v-3.655
			c0-0.077-0.078-0.152-0.152-0.152h-11.294c-0.078,0-0.152-0.077-0.152-0.152v-7.768c0-0.077,0.077-0.152,0.152-0.152h12.842
			c0.078,0,0.152-0.077,0.152-0.152v-3.655c0-0.077-0.076-0.152-0.152-0.152h-12.994h-4.391c-0.076,0-0.152,0.077-0.152,0.152v3.807
			v8.097v3.96v9.391v4.011c0,0.076,0.078,0.152,0.152,0.152h4.391h13.528c0.076,0,0.152-0.076,0.152-0.152v-3.859
			c0-0.077-0.077-0.151-0.152-0.151h-13.4C132.086,51.933,132.035,51.883,132.035,51.78z"/>
		<path fill="#FFFFFF" d="M334.952,55.865l-14.672-15.152c-0.05-0.051-0.05-0.152,0-0.203l13.2-13.707
			c0.103-0.101,0.025-0.253-0.102-0.253h-5.405c-0.051,0-0.076,0.025-0.102,0.051l-11.194,11.626
			c-0.097,0.101-0.254,0.025-0.254-0.102V26.703c0-0.077-0.075-0.152-0.151-0.152h-4.234c-0.077,0-0.152,0.077-0.152,0.152v29.288
			c0,0.077,0.076,0.152,0.152,0.152h4.234c0.076,0,0.151-0.076,0.151-0.152V43.101c0-0.126,0.18-0.205,0.254-0.103l12.695,13.098
			c0.024,0.026,0.076,0.05,0.101,0.05h5.404C334.977,56.12,335.054,55.943,334.952,55.865z"/>
	</g>
	<g>
		<polygon fill="#E17726" stroke="#E17726" stroke-linecap="round" stroke-linejoin="round" points="65.107,10.765 39.447,29.799 
			44.219,18.583 		"/>
		<g>
			<polygon fill="#E27625" stroke="#E27625" stroke-linecap="round" stroke-linejoin="round" points="5.919,10.765 31.351,29.978 
				26.808,18.583 			"/>
			<polygon fill="#E27625" stroke="#E27625" stroke-linecap="round" stroke-linejoin="round" points="55.869,54.902 49.041,65.357 
				63.661,69.396 67.848,55.132 			"/>
			<polygon fill="#E27625" stroke="#E27625" stroke-linecap="round" stroke-linejoin="round" points="3.203,55.132 7.366,69.396 
				21.961,65.357 15.158,54.902 			"/>
			<polygon fill="#E27625" stroke="#E27625" stroke-linecap="round" stroke-linejoin="round" points="21.173,37.237 17.112,43.379 
				31.579,44.039 31.097,28.43 			"/>
			<polygon fill="#E27625" stroke="#E27625" stroke-linecap="round" stroke-linejoin="round" points="49.853,37.237 39.778,28.251 
				39.447,44.039 53.914,43.379 			"/>
			<polygon fill="#E27625" stroke="#E27625" stroke-linecap="round" stroke-linejoin="round" points="21.961,65.357 30.716,61.118 
				23.178,55.233 			"/>
			<polygon fill="#E27625" stroke="#E27625" stroke-linecap="round" stroke-linejoin="round" points="40.311,61.118 49.041,65.357 
				47.848,55.233 			"/>
		</g>
		<g>
			<polygon fill="#D5BFB2" stroke="#D5BFB2" stroke-linecap="round" stroke-linejoin="round" points="49.041,65.357 40.311,61.118 
				41.022,66.805 40.945,69.217 			"/>
			<polygon fill="#D5BFB2" stroke="#D5BFB2" stroke-linecap="round" stroke-linejoin="round" points="21.961,65.357 30.083,69.217 
				30.031,66.805 30.716,61.118 			"/>
		</g>
		<polygon fill="#233447" stroke="#233447" stroke-linecap="round" stroke-linejoin="round" points="30.235,51.477 22.976,49.344 
			28.102,46.983 		"/>
		<polygon fill="#233447" stroke="#233447" stroke-linecap="round" stroke-linejoin="round" points="40.792,51.477 42.925,46.983 
			48.076,49.344 		"/>
		<g>
			<polygon fill="#CC6228" stroke="#CC6228" stroke-linecap="round" stroke-linejoin="round" points="21.961,65.357 23.23,54.902 
				15.158,55.132 			"/>
			<polygon fill="#CC6228" stroke="#CC6228" stroke-linecap="round" stroke-linejoin="round" points="47.799,54.902 49.041,65.357 
				55.869,55.132 			"/>
			<polygon fill="#CC6228" stroke="#CC6228" stroke-linecap="round" stroke-linejoin="round" points="53.914,43.379 39.447,44.039 
				40.792,51.477 42.925,46.983 48.076,49.344 			"/>
			<polygon fill="#CC6228" stroke="#CC6228" stroke-linecap="round" stroke-linejoin="round" points="22.976,49.344 28.102,46.983 
				30.235,51.477 31.579,44.039 17.112,43.379 			"/>
		</g>
		<g>
			<polygon fill="#E27525" stroke="#E27525" stroke-linecap="round" stroke-linejoin="round" points="17.112,43.379 23.178,55.233 
				22.976,49.344 			"/>
			<polygon fill="#E27525" stroke="#E27525" stroke-linecap="round" stroke-linejoin="round" points="48.076,49.344 47.848,55.233 
				53.914,43.379 			"/>
			<polygon fill="#E27525" stroke="#E27525" stroke-linecap="round" stroke-linejoin="round" points="31.579,44.039 30.235,51.477 
				31.935,60.257 32.317,48.684 			"/>
			<polygon fill="#E27525" stroke="#E27525" stroke-linecap="round" stroke-linejoin="round" points="39.447,44.039 38.737,48.658 
				39.092,60.257 40.792,51.477 			"/>
		</g>
		<polygon fill="#F5841F" stroke="#F5841F" stroke-linecap="round" stroke-linejoin="round" points="40.792,51.477 39.092,60.257 
			40.311,61.118 47.848,55.233 48.076,49.344 		"/>
		<polygon fill="#F5841F" stroke="#F5841F" stroke-linecap="round" stroke-linejoin="round" points="22.976,49.344 23.178,55.233 
			30.716,61.118 31.935,60.257 30.235,51.477 		"/>
		<polygon fill="#C0AC9D" stroke="#C0AC9D" stroke-linecap="round" stroke-linejoin="round" points="40.945,69.217 41.022,66.805 
			40.361,66.247 30.666,66.247 30.031,66.805 30.083,69.217 21.961,65.357 24.802,67.694 30.564,71.678 40.437,71.678 
			46.223,67.694 49.041,65.357 		"/>
		<polygon fill="#161616" stroke="#161616" stroke-linecap="round" stroke-linejoin="round" points="40.311,61.118 39.092,60.257 
			31.935,60.257 30.716,61.118 30.031,66.805 30.666,66.247 40.361,66.247 41.022,66.805 		"/>
		<g>
			<polygon fill="#763E1A" stroke="#763E1A" stroke-linecap="round" stroke-linejoin="round" points="66.198,31.045 68.356,20.536 
				65.107,10.765 40.311,29.167 49.853,37.237 63.33,41.171 66.3,37.694 65.007,36.755 67.061,34.875 65.488,33.657 67.544,32.084 
							"/>
			<polygon fill="#763E1A" stroke="#763E1A" stroke-linecap="round" stroke-linejoin="round" points="2.671,20.536 4.853,31.045 
				3.459,32.084 5.539,33.657 3.966,34.875 6.02,36.755 4.728,37.694 7.697,41.171 21.173,37.237 30.716,29.167 5.919,10.765 			"/>
		</g>
		<polygon fill="#F5841F" stroke="#F5841F" stroke-linecap="round" stroke-linejoin="round" points="63.33,41.171 49.853,37.237 
			53.914,43.379 47.848,55.233 55.869,55.132 67.848,55.132 		"/>
		<polygon fill="#F5841F" stroke="#F5841F" stroke-linecap="round" stroke-linejoin="round" points="21.173,37.237 7.697,41.171 
			3.203,55.132 15.158,55.132 23.178,55.233 17.112,43.379 		"/>
		<polygon fill="#F5841F" stroke="#F5841F" stroke-linecap="round" stroke-linejoin="round" points="39.447,44.039 40.311,29.167 
			44.219,18.583 26.808,18.583 30.716,29.167 31.579,44.039 31.908,48.708 31.935,60.257 39.092,60.257 39.118,48.708 		"/>
	</g>
</g>
</svg>
