<?xml version="1.0" encoding="utf-8"?>
<!-- Generator: Adobe Illustrator 16.0.0, SVG Export Plug-In . SVG Version: 6.00 Build 0)  -->
<!DOCTYPE svg PUBLIC "-//W3C//DTD SVG 1.1//EN" "http://www.w3.org/Graphics/SVG/1.1/DTD/svg11.dtd">
<svg version="1.1" id="Layer_1" xmlns:ev="http://www.w3.org/2001/xml-events"
	 xmlns="http://www.w3.org/2000/svg" xmlns:xlink="http://www.w3.org/1999/xlink" x="0px" y="0px" width="336px" height="84px"
	 viewBox="456 0 336 84" enable-background="new 456 0 336 84" xml:space="preserve">
<g id="Page-1">
	<g id="Group-2-Copy">
		<g id="Group">
			<path id="Bitski" fill="#FFFFFF" d="M560.586,22.942h10.938c7.239,0,11.091,4.417,11.091,10.886c0,0.821-0.206,2.054-0.358,2.824
				c-0.053,0.308-0.104,0.514-0.104,0.718c0,0.412,0.153,0.668,0.719,0.977c3.439,1.952,4.98,5.135,4.98,9.654
				c0,6.314-3.902,10.886-11.913,10.886h-15.353c-0.82,0-1.129-0.359-1.129-1.182V24.125
				C559.457,23.302,559.766,22.942,560.586,22.942z M568.906,37.064h2.618c1.335,0,2.361-0.822,2.361-2.414
				c0-1.542-1.026-2.414-2.361-2.414h-2.618c-0.822,0-1.13,0.359-1.13,1.182v2.464C567.776,36.704,568.084,37.064,568.906,37.064z
				 M568.906,49.593h6.879c2.003,0,3.132-0.719,3.132-2.414c0-1.644-1.129-2.413-3.132-2.413h-6.879c-0.822,0-1.13,0.359-1.13,1.181
				v2.465C567.776,49.233,568.084,49.593,568.906,49.593z M591.034,57.705V34.393c0-0.821,0.311-1.18,1.131-1.18h6.315
				c0.822,0,1.13,0.358,1.13,1.18v23.312c0,0.822-0.308,1.182-1.13,1.182h-6.315C591.345,58.887,591.034,58.527,591.034,57.705z
				 M591.034,29.259v-5.134c0-0.821,0.311-1.181,1.131-1.181h6.315c0.822,0,1.13,0.359,1.13,1.181v5.134
				c0,0.822-0.308,1.181-1.13,1.181h-6.315C591.345,30.44,591.034,30.081,591.034,29.259z M606.542,41.685h-2.926
				c-0.819,0-1.181-0.309-1.181-1.13v-6.213c0-0.821,0.309-1.129,1.181-1.129h2.926c0.821,0,1.13-0.359,1.13-1.181v-7.907
				c0-0.821,0.309-1.181,1.129-1.181h6.316c0.821,0,1.13,0.359,1.13,1.181v7.907c0,0.821,0.308,1.181,1.129,1.181h5.854
				c0.821,0,1.18,0.308,1.18,1.13v6.212c0,0.821-0.358,1.13-1.18,1.13h-5.854c-0.821,0-1.129,0.359-1.129,1.181v14.839
				c0,0.822-0.309,1.182-1.13,1.182h-6.316c-0.82,0-1.129-0.359-1.129-1.182V42.866C607.672,42.044,607.364,41.685,606.542,41.685z
				 M637.402,59.399c-4.005,0-8.112-1.231-11.039-3.028c-0.516-0.31-0.617-0.875-0.309-1.49l2.311-4.364
				c0.41-0.771,1.027-0.719,1.746-0.31c2.155,1.285,5.031,2.209,7.239,2.209c1.386,0,2.413-0.41,2.413-1.335
				c0-0.874-0.925-1.181-2.312-1.181h-1.129c-6.059,0-10.218-3.029-10.218-8.267c0-5.853,5.237-8.935,10.988-8.935
				c3.8,0,6.625,0.668,9.652,2.311c0.566,0.309,0.771,0.874,0.412,1.489l-2.619,4.57c-0.359,0.667-1.129,0.719-1.798,0.308
				c-2.053-1.283-3.902-1.643-5.597-1.643c-1.54,0-2.31,0.514-2.31,1.232c0,0.872,0.769,1.232,2.978,1.232h1.284
				c5.802,0,9.55,2.824,9.55,7.754C648.646,56.062,643.975,59.399,637.402,59.399z M669.187,44.97l8.316,12.427
				c0.516,0.771,0.206,1.49-0.719,1.49h-7.444c-0.873,0-1.541-0.104-2.26-1.182l-4.005-5.803c-0.463-0.668-0.924-0.668-1.488-0.103
				l-0.41,0.409c-0.669,0.669-0.72,1.027-0.72,1.952v3.595c0,0.771-0.309,1.131-1.13,1.131h-6.367c-0.77,0-1.078-0.359-1.078-1.131
				V24.073c0-0.771,0.309-1.131,1.078-1.131h6.367c0.821,0,1.13,0.359,1.13,1.131v14.941c0,0.822,0.77,1.028,1.336,0.359
				l4.363-4.929c0.719-0.822,1.438-1.232,2.361-1.232h8.011c0.975,0,1.233,0.873,0.565,1.54l-7.754,8.266
				C668.723,43.688,668.568,44.098,669.187,44.97z M679.967,57.705V34.393c0-0.821,0.311-1.18,1.131-1.18h6.316
				c0.82,0,1.129,0.358,1.129,1.18v23.312c0,0.822-0.309,1.182-1.129,1.182h-6.316C680.277,58.887,679.967,58.527,679.967,57.705z
				 M679.967,29.259v-5.134c0-0.821,0.311-1.181,1.131-1.181h6.316c0.82,0,1.129,0.359,1.129,1.181v5.134
				c0,0.822-0.309,1.181-1.129,1.181h-6.316C680.277,30.44,679.967,30.081,679.967,29.259z"/>
		</g>
	</g>
</g>
</svg>
