<?xml version="1.0" encoding="utf-8"?>
<!-- Generator: Adobe Illustrator 25.2.3, SVG Export Plug-In . SVG Version: 6.00 Build 0)  -->
<svg version="1.1" id="Layer_1" xmlns="http://www.w3.org/2000/svg" xmlns:xlink="http://www.w3.org/1999/xlink" x="0px" y="0px"
	 viewBox="0 0 336 84" style="enable-background:new 0 0 336 84;" xml:space="preserve">
<style type="text/css">
	.st0{fill:#40A2FF;}
	.st1{fill:#41A2FF;}
</style>
<desc>Created with Sketch.</desc>
<g transform="matrix(0.38999998569488525,0,0,0.38999998569488525,15.647125244140625,179.59033203125)">
	<g transform="matrix(1,0,0,1,958.0390014648438,149.55299377441406)">
		<path class="st0" d="M-667.3-499.4l-9.7,34.8h-10.1l-13.5-51h11.1l8,36.9h0.3l9.5-36.9h9l9.5,36.9h0.3l8.1-36.9h11.1l-13.5,51
			h-10.1l-9.7-34.8C-667-499.4-667.3-499.4-667.3-499.4z M-619.1-471.5c4.5,0,8.2-2.9,8.2-7v-2.8l-8,0.5c-3.8,0.3-6,2-6,4.7
			C-624.9-473.2-622.6-471.5-619.1-471.5z M-622.5-464c-7.2,0-12.7-4.7-12.7-11.5c0-6.9,5.3-10.9,14.7-11.5l9.5-0.6v-2.5
			c0-3.5-2.5-5.6-6.4-5.6c-3.8,0-6.3,1.9-6.8,4.7h-9.4c0.4-7.3,6.6-12.4,16.7-12.4c9.7,0,16,5,16,12.6v26h-10v-5.8h-0.2
			C-613.1-466.4-617.7-464-622.5-464z M-593.9-515.6h10.3v51h-10.3V-515.6z M-576.4-515.6h10.3v51h-10.3V-515.6z M-542.1-495.7
			c-4.5,0-7.8,3.4-8.1,8.1h16.1C-534.4-492.4-537.5-495.7-542.1-495.7z M-534-476.2h9.5c-1.1,7.4-7.9,12.4-17.3,12.4
			c-11.7,0-18.6-7.5-18.6-19.6c0-12.1,7.1-19.9,18.2-19.9c11,0,18,7.5,18,19v3.2h-26.1v0.6c0,5.4,3.4,9.1,8.7,9.1
			C-537.9-471.5-535-473.3-534-476.2z M-516.2-511.2h10.3v8.7h7v7.8h-7v18.1c0,2.9,1.4,4.3,4.5,4.3c0.9,0,1.9-0.1,2.5-0.2v7.6
			c-1.1,0.2-2.8,0.4-4.9,0.4c-8.9,0-12.4-3-12.4-10.3v-19.9h-5.3v-7.8h5.3C-516.2-502.5-516.2-511.2-516.2-511.2z M-469.9-463.8
			c-14.8,0-24.1-9.9-24.1-26.4c0-16.4,9.4-26.3,24.1-26.3c12.2,0,21.6,7.8,22.4,19.2h-10.4c-1-6.2-5.8-10.3-12-10.3
			c-8.1,0-13.2,6.8-13.2,17.5c0,10.9,5.1,17.6,13.3,17.6c6.3,0,10.9-3.7,12-9.8h10.4C-448.7-471-457.4-463.8-469.9-463.8z
			 M-424.4-463.8c-11.5,0-18.8-7.3-18.8-19.7c0-12.2,7.4-19.7,18.8-19.7c11.3,0,18.8,7.4,18.8,19.7
			C-405.7-471.2-413-463.8-424.4-463.8z M-424.4-471.7c5.1,0,8.3-4.3,8.3-11.8c0-7.5-3.2-11.8-8.3-11.8s-8.3,4.3-8.3,11.8
			C-432.7-476-429.5-471.7-424.4-471.7z M-400.4-464.6v-37.8h10v6.8h0.2c2-4.7,6-7.5,11.8-7.5c8.4,0,13.1,5.3,13.1,14.1v24.4h-10.3
			v-22.2c0-4.9-2.3-7.8-7-7.8s-7.5,3.4-7.5,8.3v21.7H-400.4z M-358.7-464.6v-37.8h10v6.8h0.2c2-4.7,6-7.5,11.8-7.5
			c8.4,0,13.1,5.3,13.1,14.1v24.4H-334v-22.2c0-4.9-2.3-7.8-7-7.8s-7.5,3.4-7.5,8.3v21.7H-358.7z M-300.1-495.7
			c-4.5,0-7.8,3.4-8.1,8.1h16.1C-292.3-492.4-295.5-495.7-300.1-495.7z M-292-476.2h9.5c-1.1,7.4-7.9,12.4-17.3,12.4
			c-11.7,0-18.6-7.5-18.6-19.6c0-12.1,7.1-19.9,18.2-19.9c11,0,18,7.5,18,19v3.2h-26.1v0.6c0,5.4,3.4,9.1,8.7,9.1
			C-295.9-471.5-293-473.3-292-476.2z M-242.6-488.4h-9.6c-0.6-4-3.2-6.8-7.5-6.8c-5.1,0-8.3,4.3-8.3,11.6c0,7.5,3.2,11.7,8.3,11.7
			c4.1,0,6.8-2.5,7.5-6.6h9.6c-0.5,8.9-7.2,14.7-17.1,14.7c-11.4,0-18.6-7.4-18.6-19.7c0-12.1,7.2-19.7,18.6-19.7
			C-249.5-503.3-243-497-242.6-488.4z M-234.8-511.2h10.3v8.7h7v7.8h-7v18.1c0,2.9,1.4,4.3,4.5,4.3c0.9,0,1.9-0.1,2.5-0.2v7.6
			c-1.1,0.2-2.8,0.4-4.9,0.4c-8.9,0-12.4-3-12.4-10.3v-19.9h-5.3v-7.8h5.3L-234.8-511.2L-234.8-511.2z"/>
	</g>
	<g transform="matrix(1,0,0,1,194.28700256347656,119)">
		<path class="st1" d="M-119.6-509.3c30.5-29.9,80-29.9,110.6,0l3.7,3.6c1.5,1.5,1.5,3.9,0,5.4L-17.9-488c-0.8,0.8-2,0.8-2.8,0
			l-5.1-4.9c-21.3-20.9-55.8-20.9-77.1,0l-5.4,5.3c-0.8,0.8-2,0.8-2.8,0l-12.6-12.3c-1.5-1.5-1.5-3.9,0-5.4L-119.6-509.3z M17-483.9
			l11.2,10.9c1.5,1.5,1.5,3.9,0,5.4l-50.4,49.4c-1.5,1.5-4,1.5-5.5,0l-35.8-35.1c-0.4-0.4-1-0.4-1.4,0l-35.8,35.1
			c-1.5,1.5-4,1.5-5.5,0l-50.5-49.4c-1.5-1.5-1.5-3.9,0-5.4l11.2-10.9c1.5-1.5,4-1.5,5.5,0l35.8,35.1c0.4,0.4,1,0.4,1.4,0l35.8-35.1
			c1.5-1.5,4-1.5,5.5,0l35.8,35.1c0.4,0.4,1,0.4,1.4,0l35.8-35.1C12.9-485.4,15.4-485.4,17-483.9z"/>
	</g>
</g>
</svg>
