<svg xmlns="http://www.w3.org/2000/svg" xmlns:xlink="http://www.w3.org/1999/xlink" width="28" height="28" viewBox="0 0 28 28">
  <defs>
    <clipPath id="clip-Icon-revv-inversed">
      <rect width="28" height="28"/>
    </clipPath>
  </defs>
  <g id="Icon-revv-inversed" clip-path="url(#clip-Icon-revv-inversed)">
    <g id="Group_2262" data-name="Group 2262" transform="translate(-45.926 -40.521)">
      <g id="Group_2178" data-name="Group 2178" transform="translate(46.926 41.521)">
        <path id="Path_2818" data-name="Path 2818" d="M69.755,333.16a1.325,1.325,0,0,1-.089.172,2.268,2.268,0,0,0-.311.976,12.457,12.457,0,0,0,.977,1.643,2.474,2.474,0,0,1,.134-.6,1.192,1.192,0,0,0-.008-.756A11.675,11.675,0,0,1,69.755,333.16Z" transform="translate(-68.05 -314.879)" fill="#fff"/>
        <path id="Path_2819" data-name="Path 2819" d="M52.236,172.021a1.133,1.133,0,0,0,.533-.5A11.738,11.738,0,0,1,53.346,170a1.26,1.26,0,0,1-.191.049,2.113,2.113,0,0,0-.911.415,12.6,12.6,0,0,0-.549,1.87A2.342,2.342,0,0,1,52.236,172.021Z" transform="translate(-51.418 -161.957)" fill="#fff"/>
        <path id="Path_2820" data-name="Path 2820" d="M193.785,44.533a1.088,1.088,0,0,0,.7.222,11.064,11.064,0,0,1,1.557-.237,1.3,1.3,0,0,1-.153-.16,2.121,2.121,0,0,0-.727-.57,11.836,11.836,0,0,0-1.869.437A2.341,2.341,0,0,1,193.785,44.533Z" transform="translate(-184.118 -43.656)" fill="#fff"/>
        <path id="Path_2821" data-name="Path 2821" d="M153.686,55.939a1.081,1.081,0,0,0,.718.07,10.972,10.972,0,0,1,1.483-.572,1.28,1.28,0,0,1-.177-.121,2.1,2.1,0,0,0-.841-.4,11.872,11.872,0,0,0-1.737.829A2.307,2.307,0,0,1,153.686,55.939Z" transform="translate(-146.475 -54.133)" fill="#fff"/>
        <path id="Path_2822" data-name="Path 2822" d="M66.088,135.943a1.111,1.111,0,0,0,.621-.378,11.634,11.634,0,0,1,.879-1.363,1.26,1.26,0,0,1-.207.008,2.086,2.086,0,0,0-.955.2,12.453,12.453,0,0,0-.928,1.719A2.317,2.317,0,0,1,66.088,135.943Z" transform="translate(-64.417 -128.408)" fill="#fff"/>
        <path id="Path_2823" data-name="Path 2823" d="M118.149,76.172a1.087,1.087,0,0,0,.73-.092,11.234,11.234,0,0,1,1.324-.872,1.271,1.271,0,0,1-.2-.08,2.067,2.067,0,0,0-.914-.216,12.247,12.247,0,0,0-1.528,1.184A2.286,2.286,0,0,1,118.149,76.172Z" transform="translate(-113.138 -72.969)" fill="#fff"/>
        <path id="Path_2824" data-name="Path 2824" d="M88.438,103.556a1.1,1.1,0,0,0,.706-.255q.225-.26.465-.508.314-.324.649-.618a1.265,1.265,0,0,1-.21-.037,2.063,2.063,0,0,0-.947-.014l-.1.1a12.564,12.564,0,0,0-1.167,1.389A2.288,2.288,0,0,1,88.438,103.556Z" transform="translate(-85.456 -98.551)" fill="#fff"/>
        <path id="Path_2825" data-name="Path 2825" d="M47.388,211.76a1.166,1.166,0,0,0,.427-.629,11.969,11.969,0,0,1,.254-1.585,1.275,1.275,0,0,1-.176.088,2.151,2.151,0,0,0-.811.6,12.965,12.965,0,0,0-.156,1.939A2.379,2.379,0,0,1,47.388,211.76Z" transform="translate(-46.926 -199.019)" fill="#fff"/>
        <path id="Path_2826" data-name="Path 2826" d="M351.158,414.963a1.087,1.087,0,0,0-.729.092,11.24,11.24,0,0,1-1.323.871,1.273,1.273,0,0,1,.2.08,2.069,2.069,0,0,0,.914.216,12.233,12.233,0,0,0,1.528-1.184A2.29,2.29,0,0,1,351.158,414.963Z" transform="translate(-330.169 -391.493)" fill="#fff"/>
        <path id="Path_2827" data-name="Path 2827" d="M446.108,257.648a1.164,1.164,0,0,0-.426.629,11.98,11.98,0,0,1-.254,1.585,1.266,1.266,0,0,1,.175-.088,2.158,2.158,0,0,0,.812-.606,12.942,12.942,0,0,0,.156-1.937A2.377,2.377,0,0,1,446.108,257.648Z" transform="translate(-420.571 -243.717)" fill="#fff"/>
        <path id="Path_2828" data-name="Path 2828" d="M273.719,451.8a1.091,1.091,0,0,0-.7-.222,11.061,11.061,0,0,1-1.557.237,1.316,1.316,0,0,1,.153.16,2.122,2.122,0,0,0,.727.57,11.84,11.84,0,0,0,1.87-.437A2.337,2.337,0,0,1,273.719,451.8Z" transform="translate(-257.387 -426.008)" fill="#fff"/>
        <path id="Path_2829" data-name="Path 2829" d="M193.416,445.954a1.126,1.126,0,0,0-.556-.5,10.991,10.991,0,0,1-1.5-.425,1.361,1.361,0,0,1,.071.2,2.207,2.207,0,0,0,.448.836,11.869,11.869,0,0,0,1.859.366A2.413,2.413,0,0,1,193.416,445.954Z" transform="translate(-182.314 -419.839)" fill="#fff"/>
        <path id="Path_2830" data-name="Path 2830" d="M91.127,78.249h0s.029,0,.031-.008a8.62,8.62,0,0,0,.513-2.476h0c0-.375.022-.747.022-1.131a12.021,12.021,0,0,0-.109-1.386h.024V73.23a14.8,14.8,0,0,0-.549-2.473h0s-.006,0-.006-.008A11.667,11.667,0,0,0,68.672,71h0l0,.006a12.361,12.361,0,0,0-.536,3.61A11.366,11.366,0,0,0,68.211,76h.039v.018a14.77,14.77,0,0,0,.517,2.473h-.012s0,0,0,.007a11.664,11.664,0,0,0,22.374-.251ZM70,74.625a9.9,9.9,0,1,1,9.9,10.232A10.079,10.079,0,0,1,70,74.625Z" transform="translate(-66.899 -61.289)" fill="#fff"/>
        <path id="Path_2831" data-name="Path 2831" d="M156.431,428.406a1.15,1.15,0,0,0-.434-.6,11.091,11.091,0,0,1-1.393-.745,1.351,1.351,0,0,1,.029.207,2.242,2.242,0,0,0,.276.927,11.836,11.836,0,0,0,1.742.756A2.453,2.453,0,0,1,156.431,428.406Z" transform="translate(-147.87 -402.913)" fill="#fff"/>
        <path id="Path_2832" data-name="Path 2832" d="M123.237,403.277a1.172,1.172,0,0,0-.315-.7,11.518,11.518,0,0,1-1.2-1.018,1.341,1.341,0,0,1-.014.21,2.263,2.263,0,0,0,.086.977,12.152,12.152,0,0,0,1.549,1.111A2.48,2.48,0,0,1,123.237,403.277Z" transform="translate(-117.018 -378.9)" fill="#fff"/>
        <path id="Path_2833" data-name="Path 2833" d="M322.424,52.984a1.147,1.147,0,0,0,.434.6,11.1,11.1,0,0,1,1.393.745,1.372,1.372,0,0,1-.029-.207,2.24,2.24,0,0,0-.276-.928,11.837,11.837,0,0,0-1.742-.756A2.452,2.452,0,0,1,322.424,52.984Z" transform="translate(-304.985 -51.805)" fill="#fff"/>
        <path id="Path_2834" data-name="Path 2834" d="M433.034,302.2a1.13,1.13,0,0,0-.532.5,11.708,11.708,0,0,1-.578,1.518,1.265,1.265,0,0,1,.19-.049,2.122,2.122,0,0,0,.912-.416,12.609,12.609,0,0,0,.549-1.868A2.347,2.347,0,0,1,433.034,302.2Z" transform="translate(-407.853 -285.596)" fill="#fff"/>
        <path id="Path_2835" data-name="Path 2835" d="M384.357,383.573a1.091,1.091,0,0,0-.706.255q-.225.26-.465.509-.314.324-.649.618a1.257,1.257,0,0,1,.21.037,2.06,2.06,0,0,0,.947.014l.1-.1a12.571,12.571,0,0,0,1.167-1.389A2.3,2.3,0,0,1,384.357,383.573Z" transform="translate(-361.339 -361.905)" fill="#fff"/>
        <path id="Path_2836" data-name="Path 2836" d="M396.533,98.128a1.193,1.193,0,0,0,.174.76,11.692,11.692,0,0,1,.961,1.238,1.35,1.35,0,0,1,.054-.194,2.279,2.279,0,0,0,.11-1,12.582,12.582,0,0,0-.869-.995q-.206-.212-.419-.412A2.469,2.469,0,0,1,396.533,98.128Z" transform="translate(-374.511 -94.271)" fill="#fff"/>
        <path id="Path_2837" data-name="Path 2837" d="M412.074,344.823a1.111,1.111,0,0,0-.621.378,11.65,11.65,0,0,1-.879,1.363,1.261,1.261,0,0,1,.207-.008,2.083,2.083,0,0,0,.955-.2,12.449,12.449,0,0,0,.929-1.72A2.317,2.317,0,0,1,412.074,344.823Z" transform="translate(-387.745 -325.686)" fill="#fff"/>
        <path id="Path_2838" data-name="Path 2838" d="M236.6,41.975a1.112,1.112,0,0,0,.666.372h.077a11.2,11.2,0,0,1,1.463.1,1.332,1.332,0,0,1-.115-.186,2.163,2.163,0,0,0-.592-.711c-.251-.016-.5-.024-.756-.024q-.581,0-1.152.055A2.37,2.37,0,0,1,236.6,41.975Z" transform="translate(-224.335 -41.521)" fill="#fff"/>
        <path id="Path_2839" data-name="Path 2839" d="M233.054,455.106a1.11,1.11,0,0,0-.666-.372h-.077a11.18,11.18,0,0,1-1.463-.1,1.324,1.324,0,0,1,.115.187,2.16,2.16,0,0,0,.592.711c.251.016.5.024.756.024q.581,0,1.152-.055A2.363,2.363,0,0,1,233.054,455.106Z" transform="translate(-219.323 -428.887)" fill="#fff"/>
        <path id="Path_2840" data-name="Path 2840" d="M47.761,253.4a1.181,1.181,0,0,0,.291-.709,12.166,12.166,0,0,1-.072-1.317q0-.143,0-.286a1.3,1.3,0,0,1-.155.125,2.2,2.2,0,0,0-.672.767,12.85,12.85,0,0,0,.236,1.928A2.419,2.419,0,0,1,47.761,253.4Z" transform="translate(-47.143 -237.95)" fill="#fff"/>
        <path id="Path_2841" data-name="Path 2841" d="M94.028,371.851a1.193,1.193,0,0,0-.174-.76,11.689,11.689,0,0,1-.961-1.238,1.354,1.354,0,0,1-.054.194,2.268,2.268,0,0,0-.111.994,12.59,12.59,0,0,0,.87,1q.205.211.419.411A2.478,2.478,0,0,1,94.028,371.851Z" transform="translate(-90.05 -349.035)" fill="#fff"/>
        <path id="Path_2842" data-name="Path 2842" d="M361.952,71.524a1.176,1.176,0,0,0,.315.7,11.516,11.516,0,0,1,1.2,1.018,1.354,1.354,0,0,1,.014-.209,2.262,2.262,0,0,0-.086-.978,12.153,12.153,0,0,0-1.549-1.111A2.469,2.469,0,0,1,361.952,71.524Z" transform="translate(-342.171 -69.228)" fill="#fff"/>
        <path id="Path_2843" data-name="Path 2843" d="M280.092,43.374a1.127,1.127,0,0,0,.555.5,10.973,10.973,0,0,1,1.5.425,1.35,1.35,0,0,1-.071-.2,2.208,2.208,0,0,0-.448-.837,11.872,11.872,0,0,0-1.859-.366A2.4,2.4,0,0,1,280.092,43.374Z" transform="translate(-265.194 -42.818)" fill="#fff"/>
        <path id="Path_2844" data-name="Path 2844" d="M54.689,295.225a1.188,1.188,0,0,0,.145-.733,11.837,11.837,0,0,1-.4-1.571,1.3,1.3,0,0,1-.124.152,2.236,2.236,0,0,0-.5.9,12.573,12.573,0,0,0,.622,1.829A2.451,2.451,0,0,1,54.689,295.225Z" transform="translate(-53.409 -277.158)" fill="#fff"/>
        <path id="Path_2845" data-name="Path 2845" d="M449.664,215.131a2.2,2.2,0,0,0,.673-.767,12.865,12.865,0,0,0-.236-1.928,2.417,2.417,0,0,1-.369.508,1.18,1.18,0,0,0-.291.709,12.213,12.213,0,0,1,.072,1.317q0,.143,0,.286A1.3,1.3,0,0,1,449.664,215.131Z" transform="translate(-424.35 -201.721)" fill="#fff"/>
        <path id="Path_2846" data-name="Path 2846" d="M423.305,133.652a1.326,1.326,0,0,1,.089-.172,2.261,2.261,0,0,0,.312-.975,12.459,12.459,0,0,0-.977-1.645,2.479,2.479,0,0,1-.134.6,1.19,1.19,0,0,0,.008.755A11.663,11.663,0,0,1,423.305,133.652Z" transform="translate(-399.011 -125.261)" fill="#fff"/>
        <path id="Path_2847" data-name="Path 2847" d="M440.6,170.2a1.187,1.187,0,0,0-.145.733,11.841,11.841,0,0,1,.4,1.571,1.3,1.3,0,0,1,.124-.152,2.236,2.236,0,0,0,.5-.9,12.558,12.558,0,0,0-.622-1.829A2.454,2.454,0,0,1,440.6,170.2Z" transform="translate(-415.881 -161.599)" fill="#fff"/>
        <path id="Path_2848" data-name="Path 2848" d="M313.73,437.789a1.081,1.081,0,0,0-.718-.07,10.986,10.986,0,0,1-1.482.572,1.3,1.3,0,0,1,.176.121,2.1,2.1,0,0,0,.841.4,11.868,11.868,0,0,0,1.737-.829A2.308,2.308,0,0,1,313.73,437.789Z" transform="translate(-294.941 -412.923)" fill="#fff"/>
      </g>
      <g id="Group_2179" data-name="Group 2179" transform="translate(55.093 48.978)">
        <path id="Path_2849" data-name="Path 2849" d="M182.363,164.742l-2.142-2.9a3.29,3.29,0,0,0,.963-.589,3.616,3.616,0,0,0,1.139-2.843,3.23,3.23,0,0,0-1-2.465,4.17,4.17,0,0,0-2.9-.942h-4.257a1.237,1.237,0,0,0-1.227,1.239c0,.027,0,.065,0,.092v1.113h6a1.014,1.014,0,0,1,.983,1.008v.234a.98.98,0,0,1-.983.969h-.946a1.228,1.228,0,0,0-.988,1.956l3.384,4.589a1.227,1.227,0,1,0,1.976-1.456Z" transform="translate(-172.935 -154.998)" fill="red"/>
        <path id="Path_2850" data-name="Path 2850" d="M173,235v5.76h.015a1.456,1.456,0,0,0,1.461,1.3,1.472,1.472,0,0,0,1.461-1.295l.016-5.766Z" transform="translate(-172.996 -230.345)" fill="#fff"/>
      </g>
    </g>
  </g>
</svg>
