<svg xmlns="http://www.w3.org/2000/svg" xmlns:xlink="http://www.w3.org/1999/xlink" width="18" height="18" viewBox="0 0 18 18">
  <defs>
    <clipPath id="clip-Logo-etherscan">
      <rect width="18" height="18"/>
    </clipPath>
  </defs>
  <g id="Logo-etherscan" clip-path="url(#clip-Logo-etherscan)">
    <g id="etherscan-logo-light-circle">
      <path id="Path_1" data-name="Path 1" d="M223.05,221.682a.741.741,0,0,1,.221-.527.751.751,0,0,1,.532-.217l1.247,0a.747.747,0,0,1,.75.745v4.684c.141-.041.321-.085.518-.131a.621.621,0,0,0,.482-.6v-5.81a.747.747,0,0,1,.75-.745h1.25a.747.747,0,0,1,.75.745v5.393s.313-.126.618-.254a.622.622,0,0,0,.382-.572v-6.429a.747.747,0,0,1,.75-.745h1.25a.747.747,0,0,1,.75.745v5.294a14.615,14.615,0,0,0,3.053-2.846,1.243,1.243,0,0,0,.192-1.167,8.828,8.828,0,0,0-17.162,2.857,8.7,8.7,0,0,0,1.173,4.388,1.118,1.118,0,0,0,1.065.548c.236-.021.531-.05.881-.091a.622.622,0,0,0,.554-.616v-4.649" transform="translate(-219.378 -213.33)" fill="#fff"/>
      <path id="Path_2" data-name="Path 2" d="M244.416,277.545a8.77,8.77,0,0,0,13.929-7.093c0-.2-.009-.4-.023-.6-3.2,4.779-9.121,7.013-13.906,7.694" transform="translate(-240.681 -261.559)" fill="#bfcfda"/>
    </g>
  </g>
</svg>
