<?xml version="1.0" encoding="utf-8"?>
<!-- Generator: Adobe Illustrator 24.0.3, SVG Export Plug-In . SVG Version: 6.00 Build 0)  -->
<svg version="1.1" id="Layer_1" xmlns="http://www.w3.org/2000/svg" xmlns:xlink="http://www.w3.org/1999/xlink" x="0px" y="0px"
	 viewBox="0 0 30 30" style="enable-background:new 0 0 30 30;" xml:space="preserve">
<style type="text/css">
	.st0{fill:none;stroke:#FFFFFF;stroke-width:1.4123;stroke-linejoin:round;stroke-miterlimit:10;}
	.st1{fill:none;stroke:#FFFFFF;stroke-width:1.4123;stroke-linecap:round;stroke-linejoin:round;stroke-miterlimit:10;}
</style>
<g>
	<path class="st0" d="M13.3,4.1c0.2,0.5,0.4,1,0.5,1.5C14,6.8,13.9,8,13.5,9.1c-0.4,1.2-1.2,2.5-2.1,3.3c-2.3,2-4.4,4.5-3.8,7.6
		c0.7,3.9,4.4,6.4,8.3,5.7c3.9-0.7,6.4-4.4,5.7-8.3c-0.2-1.2-0.6-2.1-1.3-3c0,0,0.2,0.5,0.2,0.7c0.4,1.5-0.7,3-2.3,3.3
		c-1.5,0.3-3-0.7-3.3-2.3c-0.2-1,0.3-1.6,0.8-2.6c0.7-1.1,1.1-2.2,1.1-3.2c0.1-2-0.6-4.2-2.3-5.6C13.9,4.4,13.3,4.1,13.3,4.1z"/>
	<path class="st1" d="M10.8,8.6c0,0-0.5,1.4-2.2,2.5"/>
	<path class="st1" d="M24,15.4c0,0,0.5,1,0.7,2.6"/>
</g>
</svg>
