<?xml version="1.0" encoding="utf-8"?>
<!-- Generator: Adobe Illustrator 24.0.3, SVG Export Plug-In . SVG Version: 6.00 Build 0)  -->
<svg version="1.1" id="Layer_1" xmlns="http://www.w3.org/2000/svg" xmlns:xlink="http://www.w3.org/1999/xlink" x="0px" y="0px"
	 viewBox="0 0 30 30" style="enable-background:new 0 0 30 30;" xml:space="preserve">
<style type="text/css">
	.st0{fill:none;stroke:#FFFFFF;stroke-width:1.4123;stroke-linejoin:round;stroke-miterlimit:10;}
	.st1{fill:none;stroke:#FFFFFF;stroke-width:1.4123;stroke-linecap:round;stroke-linejoin:round;stroke-miterlimit:10;}
</style>
<g>
	<g>
		<path class="st0" d="M6,23.2c-1-1.6-1.6-3.6-1.6-5.7C4.4,11.6,9.1,6.8,15,6.8c5.9,0,10.6,4.8,10.6,10.6c0,2.1-0.6,4-1.6,5.7"/>
		<line class="st1" x1="15" y1="6.8" x2="15" y2="9"/>
		<line class="st1" x1="9.7" y1="8.3" x2="10.8" y2="10.2"/>
		<line class="st1" x1="5.8" y1="12.2" x2="7.7" y2="13.3"/>
		<line class="st1" x1="22.3" y1="21.7" x2="24.2" y2="22.8"/>
		<line class="st1" x1="4.4" y1="17.5" x2="6.5" y2="17.5"/>
		<line class="st1" x1="23.5" y1="17.5" x2="25.6" y2="17.5"/>
		<line class="st1" x1="5.8" y1="22.8" x2="7.7" y2="21.7"/>
		<line class="st1" x1="22.3" y1="13.3" x2="24.2" y2="12.2"/>
		<line class="st1" x1="19.2" y1="10.2" x2="20.3" y2="8.3"/>
	</g>
	<line class="st1" x1="19.8" y1="14.7" x2="15" y2="17.5"/>
</g>
</svg>
