<?xml version="1.0" encoding="utf-8"?>
<!-- Generator: Adobe Illustrator 24.0.3, SVG Export Plug-In . SVG Version: 6.00 Build 0)  -->
<svg version="1.1" id="Layer_1" xmlns="http://www.w3.org/2000/svg" xmlns:xlink="http://www.w3.org/1999/xlink" x="0px" y="0px"
	 viewBox="0 0 30 30" style="enable-background:new 0 0 30 30;" xml:space="preserve">
<style type="text/css">
	.st0{fill:none;stroke:#FFFFFF;stroke-width:1.4123;stroke-linecap:round;stroke-linejoin:round;stroke-miterlimit:10;}
</style>
<g>
	<g>
		<path class="st0" d="M18,18c-0.8-0.8-3-3-3-3s2.1-2.1,3-3c1.6-1.6,4.3-1.6,5.9,0c1.6,1.6,1.6,4.3,0,5.9C22.2,19.6,19.6,19.6,18,18
			z"/>
		<path class="st0" d="M18,18c-0.8-0.8-3-3-3-3s-2.1,2.1-3,3c-1.6,1.6-1.6,4.3,0,5.9c1.6,1.6,4.3,1.6,5.9,0
			C19.6,22.2,19.6,19.6,18,18z"/>
		<path class="st0" d="M12,12c0.8,0.8,3,3,3,3s2.1-2.1,3-3c1.6-1.6,1.6-4.3,0-5.9c-1.6-1.6-4.3-1.6-5.9,0C10.4,7.8,10.4,10.4,12,12z
			"/>
		<path class="st0" d="M12,12c0.8,0.8,3,3,3,3s-2.1,2.1-3,3c-1.6,1.6-4.3,1.6-5.9,0c-1.6-1.6-1.6-4.3,0-5.9
			C7.8,10.4,10.4,10.4,12,12z"/>
	</g>
	<g>
		<line class="st0" x1="18.9" y1="19" x2="23.7" y2="23.7"/>
	</g>
</g>
</svg>
