<?xml version="1.0" encoding="utf-8"?>
<!-- Generator: Adobe Illustrator 16.0.0, SVG Export Plug-In . SVG Version: 6.00 Build 0)  -->
<!DOCTYPE svg PUBLIC "-//W3C//DTD SVG 1.1//EN" "http://www.w3.org/Graphics/SVG/1.1/DTD/svg11.dtd">
<svg version="1.1" id="Layer_1" xmlns="http://www.w3.org/2000/svg" xmlns:xlink="http://www.w3.org/1999/xlink" x="0px" y="0px"
	 width="250px" height="36px" viewBox="0 0 250 36" enable-background="new 0 0 250 36" xml:space="preserve">
<rect x="-258.999" y="-36" display="none" fill="#15151E" width="767.998" height="108"/>
<g>
	<path fill="#E10600" d="M71.372,25.694h0.772v2.071h0.427v-2.071h0.775v-0.369h-1.975V25.694z M73.624,27.766h0.406v-1.883h0.007
		l0.677,1.883h0.352l0.677-1.883h0.007v1.883h0.407v-2.44h-0.595l-0.656,1.911h-0.006l-0.673-1.911h-0.602V27.766z"/>
	<g>
		<defs>
			<rect id="SVGID_1_" y="0.422" width="250" height="35.156"/>
		</defs>
		<clipPath id="SVGID_2_">
			<use xlink:href="#SVGID_1_"  overflow="visible"/>
		</clipPath>
		<path clip-path="url(#SVGID_2_)" fill="#E10600" d="M27.525,19.362l-8.663,8.403H7.812l13.747-13.643
			c5.109-5.058,7.574-5.888,16.289-5.888h34.419l-7.47,7.314H38.833C32.323,15.549,30.938,16.051,27.525,19.362 M63.682,16.716
			H38.989c-6.557,0-7.583,0.501-10.557,3.475l-7.574,7.574h10.245l2.438-2.438c1.61-1.61,2.33-1.764,5.576-1.764h17.716
			L63.682,16.716z M66.354,27.766L85.937,8.234H73.772L54.241,27.766H66.354z"/>
		<path clip-path="url(#SVGID_2_)" fill="#FFFFFF" d="M89.9,15.295h5.196v8.183h4.832c1.611,0,2.68-0.268,3.208-0.805
			s0.792-1.455,0.792-2.754v-3.637c0-1.368-0.26-2.33-0.779-2.884s-1.551-0.832-3.092-0.832H89.9V8.281h10.236
			c1.542,0,2.896,0.195,4.066,0.584c1.169,0.39,2.134,0.944,2.896,1.663s1.334,1.594,1.715,2.624c0.38,1.03,0.571,2.178,0.571,3.442
			v2.858c0,1.265-0.191,2.412-0.571,3.442c-0.381,1.03-0.953,1.905-1.715,2.624s-1.728,1.273-2.896,1.662
			c-1.169,0.39-2.524,0.585-4.066,0.585H89.9V15.295z"/>
		<path clip-path="url(#SVGID_2_)" fill="#FFFFFF" d="M127.545,21.427H116.4v0.104c0,0.987,0.216,1.646,0.649,1.975
			c0.433,0.329,1.178,0.494,2.234,0.494h7.898v3.767h-7.612c-1.524,0-2.81-0.169-3.858-0.507s-1.888-0.813-2.52-1.429
			c-0.633-0.614-1.091-1.354-1.377-2.221c-0.286-0.866-0.429-1.819-0.429-2.858v-1.975c0-2.061,0.598-3.71,1.792-4.949
			c1.195-1.238,3.152-1.858,5.872-1.858h1.039c1.455,0,2.667,0.174,3.637,0.52c0.969,0.347,1.736,0.836,2.299,1.468
			c0.563,0.632,0.957,1.39,1.182,2.273c0.226,0.883,0.338,1.862,0.338,2.936V21.427z M120.661,15.451h-2.026
			c-0.832,0-1.412,0.182-1.741,0.545c-0.329,0.364-0.494,0.97-0.494,1.819v0.338h6.469v-0.338c0-0.849-0.169-1.455-0.506-1.819
			C122.024,15.633,121.457,15.451,120.661,15.451"/>
		<rect x="130.402" y="8.281" clip-path="url(#SVGID_2_)" fill="#FFFFFF" width="4.937" height="19.485"/>
		<path clip-path="url(#SVGID_2_)" fill="#FFFFFF" d="M137.677,15.945v-3.767h2.521V9.008h4.546v3.169h5.326v3.767h-5.326v6.313
			c0,0.659,0.138,1.113,0.416,1.364c0.276,0.251,0.727,0.377,1.351,0.377h3.56v3.767h-4.132c-2.147,0-3.685-0.454-4.611-1.363
			c-0.926-0.91-1.39-2.291-1.39-4.145v-6.313H137.677z"/>
		<path clip-path="url(#SVGID_2_)" fill="#FFFFFF" d="M167.527,19.322v8.443H156.85c-1.473,0-2.603-0.338-3.391-1.014
			c-0.788-0.675-1.182-1.559-1.182-2.649c0-1.195,0.376-2.16,1.13-2.896c0.753-0.736,1.676-1.477,2.767-2.222l4.417-3.04h-8.21
			v-3.767h6.833c2.979,0,5.109,0.628,6.391,1.884C166.887,15.317,167.527,17.071,167.527,19.322 M158.33,23.999h4.547l0.052-5.145
			l-4.702,3.638c-0.295,0.225-0.503,0.394-0.624,0.506c-0.121,0.113-0.182,0.256-0.182,0.429c0,0.191,0.069,0.334,0.208,0.429
			C157.768,23.951,158.001,23.999,158.33,23.999"/>
		<polygon clip-path="url(#SVGID_2_)" fill="#FFFFFF" points="175.01,27.766 175.01,12.568 167.605,12.568 167.605,8.281 
			187.609,8.281 187.609,12.568 180.206,12.568 180.206,27.766 		"/>
		<path clip-path="url(#SVGID_2_)" fill="#FFFFFF" d="M195.014,10.307h-4.937V6.462h4.937V10.307z M190.077,12.178h4.937v15.588
			h-4.937V12.178z"/>
		<path clip-path="url(#SVGID_2_)" fill="#FFFFFF" d="M198.339,27.766V12.178h18.498c2.372,0,4.087,0.572,5.144,1.715
			s1.585,2.693,1.585,4.65v9.223h-4.937v-9.353c0-0.796-0.135-1.364-0.402-1.702c-0.269-0.338-0.784-0.507-1.546-0.507h-3.273
			v11.561h-4.937V16.205h-5.195v11.561H198.339z"/>
		<path clip-path="url(#SVGID_2_)" fill="#FFFFFF" d="M242.219,21.427h-11.146v0.104c0,0.987,0.216,1.646,0.649,1.975
			c0.433,0.329,1.178,0.494,2.234,0.494h7.897v3.767h-7.611c-1.524,0-2.811-0.169-3.858-0.507s-1.888-0.813-2.52-1.429
			c-0.633-0.614-1.092-1.354-1.378-2.221c-0.285-0.866-0.428-1.819-0.428-2.858v-1.975c0-2.061,0.598-3.71,1.792-4.949
			c1.195-1.238,3.152-1.858,5.872-1.858h1.038c1.456,0,2.668,0.174,3.638,0.52c0.97,0.347,1.736,0.836,2.3,1.468
			c0.562,0.632,0.956,1.39,1.182,2.273c0.225,0.883,0.338,1.862,0.338,2.936V21.427z M235.334,15.451h-2.026
			c-0.831,0-1.412,0.182-1.74,0.545c-0.33,0.364-0.494,0.97-0.494,1.819v0.338h6.469v-0.338c0-0.849-0.169-1.455-0.506-1.819
			C236.698,15.633,236.13,15.451,235.334,15.451"/>
	</g>
</g>
</svg>
