<svg width="61" height="61" viewBox="0 0 61 61" fill="none" xmlns="http://www.w3.org/2000/svg">
<path fill-rule="evenodd" clip-rule="evenodd" d="M30.5 0C13.6557 0 0 13.6557 0 30.5C0 47.3443 13.6557 61 30.5 61C47.3443 61 61 47.3443 61 30.5C61 13.6557 47.3443 0 30.5 0ZM33.2727 16.6364C33.2727 15.901 32.9806 15.1957 32.4606 14.6757C31.9406 14.1558 31.2354 13.8636 30.5 13.8636C29.7646 13.8636 29.0594 14.1558 28.5394 14.6757C28.0194 15.1957 27.7273 15.901 27.7273 16.6364V33.2727C27.7273 34.0081 28.0194 34.7134 28.5394 35.2333C29.0594 35.7533 29.7646 36.0455 30.5 36.0455C31.2354 36.0455 31.9406 35.7533 32.4606 35.2333C32.9806 34.7134 33.2727 34.0081 33.2727 33.2727V16.6364ZM33.2727 42.9773C33.2727 42.2419 32.9806 41.5366 32.4606 41.0167C31.9406 40.4967 31.2354 40.2045 30.5 40.2045C29.7646 40.2045 29.0594 40.4967 28.5394 41.0167C28.0194 41.5366 27.7273 42.2419 27.7273 42.9773V44.3636C27.7273 45.099 28.0194 45.8043 28.5394 46.3243C29.0594 46.8442 29.7646 47.1364 30.5 47.1364C31.2354 47.1364 31.9406 46.8442 32.4606 46.3243C32.9806 45.8043 33.2727 45.099 33.2727 44.3636V42.9773Z" fill="white"/>
</svg>
