<svg xmlns="http://www.w3.org/2000/svg" width="36" height="36" viewBox="0 0 36 36"><defs><style>.a{fill:#fff;}.b{fill:none;}</style></defs><g transform="translate(-787 -497)"><g transform="translate(793 505)"><path class="a" d="M184.756,316.224a8.515,8.515,0,0,0-5.738,2.318,6.815,6.815,0,0,0-2.116,5.773c-.871-.108-1.664-.227-2.462-.294a1.53,1.53,0,0,0-.836.141c-.775.437-1.517.931-2.4,1.481.161-.73.266-1.37.451-1.985a.755.755,0,0,0-.343-1,6.788,6.788,0,0,1-2.958-7.623,7.546,7.546,0,0,1,5.3-5.175,8.888,8.888,0,0,1,9.712,2.846A6.652,6.652,0,0,1,184.756,316.224Zm-10.253-.906a1.027,1.027,0,0,0-.988-1.028,1,1,0,0,0-1.038.965.986.986,0,0,0,.977,1.023A1.014,1.014,0,0,0,174.5,315.318Zm5.35-1.028a1.028,1.028,0,0,0-1,1.013,1,1,0,0,0,1.031.98,1,1,0,1,0-.026-1.993Z" transform="translate(-168.082 -309.419)"/><path class="a" d="M285.472,405.392a7.566,7.566,0,0,0-2.041-.857,11.412,11.412,0,0,0-2.126.4,7.1,7.1,0,0,1-5.762-1.88c-3.073-2.842-2.634-7.2.921-9.53a7.75,7.75,0,0,1,10.022,1.492,5.692,5.692,0,0,1-.658,7.939c-.687.609-.934,1.111-.493,1.914A2.286,2.286,0,0,1,285.472,405.392Zm-8.03-7.775a.83.83,0,1,0,.006-1.66.83.83,0,1,0-.006,1.66Zm5.177-1.658a.83.83,0,0,0-.824.794.819.819,0,1,0,.824-.794Z" transform="translate(-263.793 -384.697)"/></g><rect class="b" width="36" height="36" transform="translate(787 497)"/></g></svg>