<svg xmlns="http://www.w3.org/2000/svg" xmlns:xlink="http://www.w3.org/1999/xlink" width="36" height="36" viewBox="0 0 36 36">
  <defs>
    <clipPath id="clip-icon-weibo">
      <rect width="36" height="36"/>
    </clipPath>
  </defs>
  <g id="icon-weibo" clip-path="url(#clip-icon-weibo)">
    <g id="sina" transform="translate(-2498.661 -518.84)">
      <path id="Subtraction_2" data-name="Subtraction 2" d="M9.034,16.337h0l-.307,0c-5.9-.094-8.2-3.181-8.624-4.991A6.59,6.59,0,0,1,.59,7.608,13.508,13.508,0,0,1,4.14,2.72C6.135.915,7.89,0,9.356,0a3.337,3.337,0,0,1,1.623.417c.726.392.568,1.414.453,2.16-.067.432-.12.773.011.869a.314.314,0,0,0,.173.032A8.926,8.926,0,0,0,12.826,3.3l.475-.086a14.159,14.159,0,0,1,2.353-.264,2.221,2.221,0,0,1,1.693.495c.4.513.142,1.3-.061,1.934-.134.416-.25.776-.138.94a.244.244,0,0,0,.2.1,4.163,4.163,0,0,1,3.066,3.189,4.018,4.018,0,0,1-1.223,2.769,11.6,11.6,0,0,1-1.412,1.371,9.7,9.7,0,0,1-2.221,1.3,14.771,14.771,0,0,1-2.737.89A17.436,17.436,0,0,1,9.034,16.337ZM8.841,5.472a6.691,6.691,0,0,0-4.628,1.76,6.153,6.153,0,0,0-1.545,2.13,3.514,3.514,0,0,0,.225,3.078,6.249,6.249,0,0,0,3.183,2.023A10.881,10.881,0,0,0,9.15,14.9a8.278,8.278,0,0,0,4.8-1.389,5.387,5.387,0,0,0,2.5-3.033A2.018,2.018,0,0,0,16.386,9.2,4.011,4.011,0,0,0,15.268,7.7,9.535,9.535,0,0,0,10.2,5.58,8.9,8.9,0,0,0,8.841,5.472Z" transform="translate(2505.015 529.876)" fill="#fff"/>
      <path id="Path_8" data-name="Path 8" d="M2373.849,611.885" transform="translate(136.687 -69.308)" fill="none" stroke="#707070" stroke-width="1"/>
      <path id="Subtraction_4" data-name="Subtraction 4" d="M3.238,6.431a4.756,4.756,0,0,1-1-.11A2.4,2.4,0,0,1,.054,4.287,3.6,3.6,0,0,1,.914,1.275,3.529,3.529,0,0,1,3.535,0,4.932,4.932,0,0,1,4.887.212,3.415,3.415,0,0,1,6.846,1.558a2.482,2.482,0,0,1,.389.891,3.278,3.278,0,0,1,.029.929,2.618,2.618,0,0,1-.845,1.7A4.672,4.672,0,0,1,3.238,6.431ZM2.806,3.286A1.183,1.183,0,1,0,3.989,4.469,1.184,1.184,0,0,0,2.806,3.286ZM4.419,2a.645.645,0,1,0,.645.645A.646.646,0,0,0,4.419,2Z" transform="translate(2510.269 537.243)" fill="#fff"/>
      <path id="Path_10" data-name="Path 10" d="M2396.23,574.829c-.439-.654-.306-1.276,1.246-1.448,1.545-.075,3.434-.271,5.365,1.869,1.8,2.013,1.206,5.453,1.206,5.453s-.2,1.161-.42,1.195a.744.744,0,0,1-1.239-.077c-.465-.166.822-3.683-.716-5.364C2399.354,574.08,2396.733,575.706,2396.23,574.829Z" transform="translate(124.058 -46)" fill="#fff"/>
      <path id="Path_11" data-name="Path 11" d="M2397.372,581.255a.6.6,0,0,1,.357-.686,3.417,3.417,0,0,1,3.152.686,3.8,3.8,0,0,1,.653,3.561c-.235.673-1.151.241-1.15,0-.188-.077.166-1.88-.542-2.511a3.964,3.964,0,0,0-2.1-.608C2397.4,581.674,2397.372,581.255,2397.372,581.255Z" transform="translate(123.285 -50.047)" fill="#fff"/>
    </g>
  </g>
</svg>
