<svg xmlns="http://www.w3.org/2000/svg" width="36" height="36" viewBox="0 0 36 36"><defs><style>.a{fill:#fff;}.b{fill:none;}</style></defs><g transform="translate(-909 -497)"><path class="a" d="M70.833,70.737a8.547,8.547,0,0,1-2.455.673,4.288,4.288,0,0,0,1.879-2.365,8.554,8.554,0,0,1-2.714,1.037,4.278,4.278,0,0,0-7.283,3.9,12.134,12.134,0,0,1-8.81-4.466,4.279,4.279,0,0,0,1.323,5.706,4.257,4.257,0,0,1-1.936-.535c0,.018,0,.036,0,.054a4.277,4.277,0,0,0,3.429,4.191,4.285,4.285,0,0,1-1.93.073,4.278,4.278,0,0,0,3.993,2.968A8.575,8.575,0,0,1,51.02,83.8a8.67,8.67,0,0,1-1.02-.06A12.155,12.155,0,0,0,68.713,73.5q0-.278-.012-.553A8.684,8.684,0,0,0,70.833,70.737Z" transform="translate(867.5 438.267)"/><rect class="b" width="36" height="36" transform="translate(909 497)"/></g></svg>