<svg xmlns="http://www.w3.org/2000/svg" width="36" height="36" viewBox="0 0 36 36"><defs><style>.a{fill:#fff;}.b{fill:none;}</style></defs><g transform="translate(-849 -497)"><path class="a" d="M-246.512,70.326a10.163,10.163,0,0,0-5.774-2.158l-.288.329a13.677,13.677,0,0,1,5.116,2.61,16.753,16.753,0,0,0-6.185-1.973,17.389,17.389,0,0,0-4.151.041,2.013,2.013,0,0,0-.349.041,15.425,15.425,0,0,0-4.664,1.295c-.76.349-1.212.6-1.212.6a13.86,13.86,0,0,1,5.4-2.692l-.206-.247a10.162,10.162,0,0,0-5.774,2.158,27.518,27.518,0,0,0-2.959,11.98,7.45,7.45,0,0,0,6.267,3.123s.76-.925,1.377-1.706a6.39,6.39,0,0,1-3.6-2.425s.206.144.575.349a.282.282,0,0,0,.082.062c.062.041.123.062.185.1a12.025,12.025,0,0,0,1.5.7,17.241,17.241,0,0,0,3.021.884,14.392,14.392,0,0,0,5.322.021,13.524,13.524,0,0,0,2.979-.884,11.754,11.754,0,0,0,2.363-1.212,6.484,6.484,0,0,1-3.719,2.445c.616.781,1.356,1.664,1.356,1.664a7.511,7.511,0,0,0,6.288-3.123A27.518,27.518,0,0,0-246.512,70.326ZM-259.4,80.394a2.2,2.2,0,0,1-2.1-2.281,2.189,2.189,0,0,1,2.1-2.281,2.176,2.176,0,0,1,2.1,2.281A2.189,2.189,0,0,1-259.4,80.394Zm7.5,0a2.2,2.2,0,0,1-2.1-2.281,2.189,2.189,0,0,1,2.1-2.281,2.189,2.189,0,0,1,2.1,2.281A2.189,2.189,0,0,1-251.9,80.394Z" transform="translate(1122.553 437.832)"/><rect class="b" width="36" height="36" transform="translate(849 497)"/></g></svg>