<?xml version="1.0" encoding="utf-8"?>
<!-- Generator: Adobe Illustrator 16.0.0, SVG Export Plug-In . SVG Version: 6.00 Build 0)  -->
<!DOCTYPE svg PUBLIC "-//W3C//DTD SVG 1.1//EN" "http://www.w3.org/Graphics/SVG/1.1/DTD/svg11.dtd">
<svg version="1.1" xmlns="http://www.w3.org/2000/svg" xmlns:xlink="http://www.w3.org/1999/xlink" x="0px" y="0px" width="36px"
	 height="36px" viewBox="79.5 79.5 36 36" enable-background="new 79.5 79.5 36 36" xml:space="preserve">
<g id="Layer_1">
	<g>
		<g id="Page-1_4_">
			<g id="Monogram_4_">
				<path id="Shape_4_" fill="#FFFFFF" d="M89.104,92.266c0.024-0.257-0.073-0.511-0.265-0.685l-1.949-2.345v-0.354h6.052
					l4.678,10.263l4.113-10.263h5.77v0.354l-1.667,1.599c-0.144,0.105-0.214,0.288-0.184,0.465v11.742
					c-0.03,0.18,0.04,0.355,0.184,0.469l1.629,1.595v0.352h-8.188v-0.352l1.688-1.635c0.165-0.165,0.165-0.216,0.165-0.469v-9.489
					l-4.689,11.904h-0.633l-5.458-11.904v7.979c-0.046,0.334,0.065,0.674,0.303,0.917l2.193,2.659v0.349h-6.219v-0.349l2.194-2.659
					c0.234-0.247,0.337-0.587,0.284-0.917V92.266z"/>
			</g>
		</g>
	</g>
</g>
<g id="Layer_2">
</g>
</svg>
