<svg xmlns="http://www.w3.org/2000/svg" xmlns:xlink="http://www.w3.org/1999/xlink" width="48" height="48" viewBox="0 0 48 48">
  <defs>
    <clipPath id="clip-Icon-discord">
      <rect width="48" height="48"/>
    </clipPath>
  </defs>
  <g id="Icon-discord" clip-path="url(#clip-Icon-discord)">
    <g id="Group_5389" data-name="Group 5389">
      <circle id="Ellipse_11" data-name="Ellipse 11" cx="24" cy="24" r="24"/>
      <path id="Path_1395" data-name="Path 1395" d="M-247.358,70.239a9.754,9.754,0,0,0-5.542-2.071l-.276.316a13.127,13.127,0,0,1,4.911,2.5,16.078,16.078,0,0,0-5.936-1.893,16.69,16.69,0,0,0-3.984.039,1.933,1.933,0,0,0-.335.04A14.8,14.8,0,0,0-263,70.416c-.73.335-1.164.572-1.164.572a13.3,13.3,0,0,1,5.187-2.584l-.2-.237a9.754,9.754,0,0,0-5.542,2.071,26.411,26.411,0,0,0-2.84,11.5,7.151,7.151,0,0,0,6.015,3s.73-.887,1.321-1.637a6.134,6.134,0,0,1-3.451-2.327s.2.138.552.335a.268.268,0,0,0,.079.059c.059.04.118.059.178.1a11.544,11.544,0,0,0,1.44.67,16.549,16.549,0,0,0,2.9.848,13.813,13.813,0,0,0,5.108.02,12.98,12.98,0,0,0,2.86-.848,11.283,11.283,0,0,0,2.268-1.164,6.224,6.224,0,0,1-3.57,2.347c.592.749,1.3,1.6,1.3,1.6a7.209,7.209,0,0,0,6.035-3A26.412,26.412,0,0,0-247.358,70.239ZM-259.723,79.9a2.114,2.114,0,0,1-2.012-2.189,2.1,2.1,0,0,1,2.012-2.189,2.088,2.088,0,0,1,2.011,2.189A2.1,2.1,0,0,1-259.723,79.9Zm7.2,0a2.114,2.114,0,0,1-2.012-2.189,2.1,2.1,0,0,1,2.012-2.189,2.1,2.1,0,0,1,2.012,2.189A2.1,2.1,0,0,1-252.525,79.9Z" transform="translate(279.911 -52.534)" fill="#fff"/>
    </g>
  </g>
</svg>
