<svg xmlns="http://www.w3.org/2000/svg" xmlns:xlink="http://www.w3.org/1999/xlink" width="48" height="48" viewBox="0 0 48 48">
  <defs>
    <clipPath id="clip-Icon-twitter">
      <rect width="48" height="48"/>
    </clipPath>
  </defs>
  <g id="Icon-twitter" clip-path="url(#clip-Icon-twitter)">
    <g id="Group_5390" data-name="Group 5390">
      <circle id="Ellipse_12" data-name="Ellipse 12" cx="24" cy="24" r="24"/>
      <path id="Path_1397" data-name="Path 1397" d="M71.1,70.763a8.654,8.654,0,0,1-2.486.682,4.342,4.342,0,0,0,1.9-2.395,8.662,8.662,0,0,1-2.749,1.05,4.332,4.332,0,0,0-7.375,3.948,12.288,12.288,0,0,1-8.921-4.522A4.333,4.333,0,0,0,52.808,75.3a4.311,4.311,0,0,1-1.96-.541c0,.018,0,.036,0,.054a4.331,4.331,0,0,0,3.472,4.244,4.339,4.339,0,0,1-1.955.074,4.332,4.332,0,0,0,4.043,3.006,8.683,8.683,0,0,1-5.375,1.853A8.778,8.778,0,0,1,50,83.933a12.309,12.309,0,0,0,18.949-10.37q0-.281-.013-.56A8.793,8.793,0,0,0,71.1,70.763Z" transform="translate(-36.687 -53.196)" fill="#fff"/>
    </g>
  </g>
</svg>
