<svg xmlns="http://www.w3.org/2000/svg" width="65.976" height="75.401" viewBox="0 0 65.976 75.401"><defs><style>.a{fill:#fff;}</style></defs><g transform="translate(-35 -20)"><path class="a" d="M98.045,103.9a4.2,4.2,0,1,0,3.845,4.185A4.017,4.017,0,0,0,98.045,103.9Zm13.761,0a4.2,4.2,0,1,0,3.845,4.185A4.017,4.017,0,0,0,111.806,103.9Z" transform="translate(-36.881 -52.269)"/><path class="a" d="M93.247,20H42.729A7.747,7.747,0,0,0,35,27.766V78.737A7.747,7.747,0,0,0,42.729,86.5H85.481l-2-6.975,4.826,4.486,4.562,4.222,8.106,7.163V27.766A7.747,7.747,0,0,0,93.247,20ZM78.695,69.237s-1.357-1.621-2.488-3.054c4.939-1.395,6.824-4.486,6.824-4.486a21.573,21.573,0,0,1-4.336,2.224,24.814,24.814,0,0,1-5.467,1.621,26.41,26.41,0,0,1-9.764-.038,31.647,31.647,0,0,1-5.542-1.621A22.094,22.094,0,0,1,55.17,62.6c-.113-.075-.226-.113-.339-.189a.52.52,0,0,1-.151-.113c-.679-.377-1.056-.641-1.056-.641a11.725,11.725,0,0,0,6.6,4.449C59.091,67.54,57.7,69.237,57.7,69.237c-8.332-.264-11.5-5.73-11.5-5.73a50.487,50.487,0,0,1,5.429-21.979A18.643,18.643,0,0,1,62.22,37.568l.377.452c-6.786,1.96-9.915,4.939-9.915,4.939s.829-.452,2.224-1.093a28.312,28.312,0,0,1,8.558-2.375,3.715,3.715,0,0,1,.641-.075,31.9,31.9,0,0,1,7.616-.075A30.732,30.732,0,0,1,83.068,42.96s-2.978-2.828-9.387-4.788l.528-.6A18.643,18.643,0,0,1,84.8,41.527a50.487,50.487,0,0,1,5.429,21.979S87.027,68.973,78.695,69.237Z"/></g></svg>