<?xml version="1.0" encoding="utf-8"?>
<!-- Generator: Adobe Illustrator 16.0.0, SVG Export Plug-In . SVG Version: 6.00 Build 0)  -->
<!DOCTYPE svg PUBLIC "-//W3C//DTD SVG 1.1//EN" "http://www.w3.org/Graphics/SVG/1.1/DTD/svg11.dtd">
<svg version="1.1" id="Layer_1" xmlns="http://www.w3.org/2000/svg" xmlns:xlink="http://www.w3.org/1999/xlink" x="0px" y="0px"
	 width="30px" height="30px" viewBox="0 0 30 30" enable-background="new 0 0 30 30" xml:space="preserve">
<g>
	<path fill="none" stroke="#000000" stroke-width="1.4123" stroke-linejoin="round" stroke-miterlimit="10" d="M13.322,4.117
		c0.202,0.473,0.355,0.976,0.451,1.503c0.226,1.22,0.123,2.425-0.244,3.525c-0.404,1.21-1.25,2.546-2.111,3.284
		c-2.341,2.005-4.396,4.454-3.813,7.639c0.71,3.855,4.41,6.406,8.266,5.697c3.857-0.709,6.408-4.409,5.698-8.265
		c-0.224-1.217-0.594-2.114-1.325-3.009c0,0,0.154,0.501,0.194,0.671c0.359,1.525-0.736,3.021-2.278,3.305
		c-1.542,0.283-3.021-0.737-3.304-2.278c-0.181-0.978,0.277-1.63,0.835-2.57c0.668-1.127,1.078-2.154,1.139-3.231
		c0.113-2.012-0.621-4.245-2.345-5.557C13.872,4.351,13.322,4.117,13.322,4.117z"/>
	
		<path fill="none" stroke="#000000" stroke-width="1.4123" stroke-linecap="round" stroke-linejoin="round" stroke-miterlimit="10" d="
		M10.755,8.59c0,0-0.482,1.391-2.162,2.472"/>
	
		<path fill="none" stroke="#000000" stroke-width="1.4123" stroke-linecap="round" stroke-linejoin="round" stroke-miterlimit="10" d="
		M23.99,15.418c0,0,0.507,1.009,0.68,2.566"/>
</g>
</svg>
