<?xml version="1.0" encoding="utf-8"?>
<!-- Generator: Adobe Illustrator 16.0.0, SVG Export Plug-In . SVG Version: 6.00 Build 0)  -->
<!DOCTYPE svg PUBLIC "-//W3C//DTD SVG 1.1//EN" "http://www.w3.org/Graphics/SVG/1.1/DTD/svg11.dtd">
<svg version="1.1" id="Layer_1" xmlns="http://www.w3.org/2000/svg" xmlns:xlink="http://www.w3.org/1999/xlink" x="0px" y="0px"
	 width="30px" height="30px" viewBox="0 0 30 30" enable-background="new 0 0 30 30" xml:space="preserve">
<g>
	<g>
		<path fill="none" stroke="#000000" stroke-width="1.4123" stroke-linejoin="round" stroke-miterlimit="10" d="M5.994,23.156
			c-1.035-1.643-1.634-3.587-1.634-5.672C4.36,11.607,9.124,6.844,15,6.844c5.878,0,10.643,4.764,10.643,10.641
			c0,2.084-0.599,4.027-1.634,5.668"/>
		
			<line fill="none" stroke="#000000" stroke-width="1.4123" stroke-linecap="round" stroke-linejoin="round" stroke-miterlimit="10" x1="15" y1="6.844" x2="15" y2="9.019"/>
		
			<line fill="none" stroke="#000000" stroke-width="1.4123" stroke-linecap="round" stroke-linejoin="round" stroke-miterlimit="10" x1="9.679" y1="8.269" x2="10.768" y2="10.153"/>
		
			<line fill="none" stroke="#000000" stroke-width="1.4123" stroke-linecap="round" stroke-linejoin="round" stroke-miterlimit="10" x1="5.785" y1="12.165" x2="7.668" y2="13.252"/>
		
			<line fill="none" stroke="#000000" stroke-width="1.4123" stroke-linecap="round" stroke-linejoin="round" stroke-miterlimit="10" x1="22.331" y1="21.718" x2="24.217" y2="22.806"/>
		
			<line fill="none" stroke="#000000" stroke-width="1.4123" stroke-linecap="round" stroke-linejoin="round" stroke-miterlimit="10" x1="4.357" y1="17.485" x2="6.533" y2="17.485"/>
		
			<line fill="none" stroke="#000000" stroke-width="1.4123" stroke-linecap="round" stroke-linejoin="round" stroke-miterlimit="10" x1="23.466" y1="17.485" x2="25.641" y2="17.485"/>
		
			<line fill="none" stroke="#000000" stroke-width="1.4123" stroke-linecap="round" stroke-linejoin="round" stroke-miterlimit="10" x1="5.785" y1="22.807" x2="7.668" y2="21.719"/>
		
			<line fill="none" stroke="#000000" stroke-width="1.4123" stroke-linecap="round" stroke-linejoin="round" stroke-miterlimit="10" x1="22.331" y1="13.253" x2="24.215" y2="12.165"/>
		
			<line fill="none" stroke="#000000" stroke-width="1.4123" stroke-linecap="round" stroke-linejoin="round" stroke-miterlimit="10" x1="19.232" y1="10.154" x2="20.321" y2="8.271"/>
	</g>
	
		<line fill="none" stroke="#000000" stroke-width="1.4123" stroke-linecap="round" stroke-linejoin="round" stroke-miterlimit="10" x1="19.776" y1="14.729" x2="15.002" y2="17.485"/>
</g>
</svg>
