<?xml version="1.0" encoding="utf-8"?>
<!-- Generator: Adobe Illustrator 16.0.0, SVG Export Plug-In . SVG Version: 6.00 Build 0)  -->
<!DOCTYPE svg PUBLIC "-//W3C//DTD SVG 1.1//EN" "http://www.w3.org/Graphics/SVG/1.1/DTD/svg11.dtd">
<svg version="1.1" id="Layer_1" xmlns="http://www.w3.org/2000/svg" xmlns:xlink="http://www.w3.org/1999/xlink" x="0px" y="0px"
	 width="30px" height="30px" viewBox="0 0 30 30" enable-background="new 0 0 30 30" xml:space="preserve">
<g>
	<g>
		
			<path fill="none" stroke="#000000" stroke-width="1.4123" stroke-linecap="round" stroke-linejoin="round" stroke-miterlimit="10" d="
			M17.954,17.953C17.182,17.182,15.001,15,15.001,15s2.093-2.093,2.952-2.953c1.631-1.631,4.277-1.631,5.907,0
			c1.632,1.632,1.63,4.276-0.001,5.905C22.229,19.584,19.585,19.584,17.954,17.953z"/>
		
			<path fill="none" stroke="#000000" stroke-width="1.4123" stroke-linecap="round" stroke-linejoin="round" stroke-miterlimit="10" d="
			M17.954,17.953C17.181,17.183,15.001,15,15.001,15s-2.094,2.094-2.955,2.953c-1.63,1.631-1.63,4.276,0.001,5.908
			c1.631,1.631,4.275,1.63,5.906,0C19.585,22.229,19.585,19.584,17.954,17.953z"/>
		
			<path fill="none" stroke="#000000" stroke-width="1.4123" stroke-linecap="round" stroke-linejoin="round" stroke-miterlimit="10" d="
			M12.046,12.047C12.819,12.818,15.001,15,15.001,15s2.093-2.092,2.952-2.953c1.631-1.631,1.632-4.275,0-5.907
			c-1.631-1.631-4.275-1.631-5.907,0C10.416,7.771,10.416,10.416,12.046,12.047z"/>
		
			<path fill="none" stroke="#000000" stroke-width="1.4123" stroke-linecap="round" stroke-linejoin="round" stroke-miterlimit="10" d="
			M12.046,12.047C12.819,12.818,15.001,15,15.001,15s-2.094,2.094-2.955,2.953c-1.63,1.631-4.274,1.632-5.906,0
			c-1.632-1.631-1.631-4.275,0-5.906C7.771,10.416,10.416,10.416,12.046,12.047z"/>
	</g>
	<g>
		
			<line fill="none" stroke="#000000" stroke-width="1.4123" stroke-linecap="round" stroke-linejoin="round" stroke-miterlimit="10" x1="18.934" y1="18.953" x2="23.708" y2="23.727"/>
	</g>
</g>
</svg>
