<?xml version="1.0" encoding="utf-8"?>
<!-- Generator: Adobe Illustrator 16.0.0, SVG Export Plug-In . SVG Version: 6.00 Build 0)  -->
<!DOCTYPE svg PUBLIC "-//W3C//DTD SVG 1.1//EN" "http://www.w3.org/Graphics/SVG/1.1/DTD/svg11.dtd">
<svg version="1.1" id="Layer_1" xmlns="http://www.w3.org/2000/svg" xmlns:xlink="http://www.w3.org/1999/xlink" x="0px" y="0px"
	 width="50px" height="50px" viewBox="0 0 50 50" enable-background="new 0 0 50 50" xml:space="preserve">
<g>
	<path fill="none" stroke="#FFFFFF" stroke-width="1.6151" stroke-linejoin="round" stroke-miterlimit="10" d="M43.212,25.203
		l2.921-2.561l-3.423-1.852c-1.231-0.669-1.755-2.148-1.213-3.431l1.51-3.56l-3.895-0.199c-1.403-0.071-2.523-1.181-2.598-2.568
		l-0.199-3.857L32.718,8.67c-1.294,0.539-2.791,0.021-3.465-1.199l-1.87-3.388l-2.587,2.89c-0.933,1.042-2.506,1.217-3.648,0.406
		l-3.17-2.247l-1.063,3.714c-0.384,1.339-1.727,2.173-3.109,1.934l-3.842-0.664l0.668,3.803c0.245,1.37-0.601,2.699-1.95,3.077
		l-3.755,1.052l2.272,3.14c0.819,1.128,0.643,2.688-0.411,3.61l-2.921,2.559l3.423,1.854c1.233,0.665,1.757,2.147,1.211,3.429
		l-1.509,3.562l3.897,0.197c1.402,0.072,2.523,1.182,2.596,2.569l0.2,3.855l3.598-1.494c1.295-0.537,2.792-0.02,3.465,1.201
		l1.871,3.389l2.587-2.892c0.931-1.042,2.505-1.218,3.648-0.407l3.17,2.249l1.062-3.715c0.384-1.337,1.726-2.174,3.11-1.933
		l3.842,0.664l-0.672-3.804c-0.24-1.369,0.604-2.698,1.954-3.076l3.754-1.053l-2.272-3.138
		C41.982,27.683,42.159,26.122,43.212,25.203z"/>
	
		<circle fill="none" stroke="#FFFFFF" stroke-width="1.6151" stroke-linejoin="round" stroke-miterlimit="10" cx="24.995" cy="25" r="12.286"/>
</g>
</svg>
