<?xml version="1.0" encoding="utf-8"?>
<!-- Generator: Adobe Illustrator 16.0.0, SVG Export Plug-In . SVG Version: 6.00 Build 0)  -->
<!DOCTYPE svg PUBLIC "-//W3C//DTD SVG 1.1//EN" "http://www.w3.org/Graphics/SVG/1.1/DTD/svg11.dtd">
<svg version="1.1" id="Layer_1" xmlns="http://www.w3.org/2000/svg" xmlns:xlink="http://www.w3.org/1999/xlink" x="0px" y="0px"
	 width="50px" height="50px" viewBox="0 0 50 50" enable-background="new 0 0 50 50" xml:space="preserve">
<g>
	<path fill="none" stroke="#FFFFFF" stroke-width="1.6151" stroke-linejoin="round" stroke-miterlimit="10" d="M11.51,28.205
		c-3.371,0-6.103-2.731-6.103-6.103c0-3.37,2.731-6.103,6.103-6.103c0.332,0,0.655,0.026,0.975,0.077v-0.232
		c-0.008-0.162-0.011-0.324-0.011-0.487c0-6.031,4.889-10.921,10.92-10.921c5.045,0,9.293,3.422,10.546,8.072l0.448-0.065
		c0.692-0.193,1.422-0.298,2.175-0.298c4.435,0,8.03,3.596,8.03,8.029c0,4.436-3.596,8.03-8.03,8.03H11.51"/>
	
		<path fill="none" stroke="#FFFFFF" stroke-width="1.6151" stroke-linecap="round" stroke-linejoin="round" stroke-miterlimit="10" d="
		M25.206,40.124c-0.221,0-0.442-0.026-0.655-0.079c-0.416-0.104-0.802-0.313-1.124-0.594c-0.472-0.411-0.813-0.982-0.918-1.603
		c-0.125-0.748,0.184-1.321,0.538-1.954c0.395-0.708,0.778-1.422,1.167-2.133c0.331-0.604,0.661-1.206,0.992-1.811h-0.005
		c0.329,0.604,0.66,1.207,0.991,1.811c0.389,0.711,0.772,1.425,1.167,2.133c0.354,0.633,0.662,1.206,0.537,1.954
		c-0.104,0.62-0.445,1.191-0.917,1.603c-0.322,0.281-0.709,0.49-1.124,0.594c-0.214,0.053-0.435,0.079-0.654,0.079"/>
	
		<path fill="none" stroke="#FFFFFF" stroke-width="1.6151" stroke-linecap="round" stroke-linejoin="round" stroke-miterlimit="10" d="
		M37.783,45.563c-0.221,0-0.441-0.026-0.655-0.08c-0.415-0.103-0.802-0.313-1.123-0.593c-0.472-0.412-0.814-0.982-0.918-1.603
		c-0.126-0.748,0.183-1.322,0.537-1.954c0.395-0.709,0.778-1.423,1.168-2.134c0.33-0.603,0.66-1.207,0.991-1.81h-0.005
		c0.329,0.603,0.66,1.207,0.99,1.81c0.39,0.711,0.773,1.425,1.169,2.134c0.354,0.632,0.661,1.206,0.537,1.954
		c-0.104,0.62-0.446,1.19-0.918,1.603c-0.322,0.28-0.708,0.49-1.124,0.593c-0.215,0.054-0.435,0.08-0.654,0.08"/>
	
		<path fill="none" stroke="#FFFFFF" stroke-width="1.6151" stroke-linecap="round" stroke-linejoin="round" stroke-miterlimit="10" d="
		M12.628,43.523c-0.22,0-0.44-0.026-0.655-0.079c-0.414-0.103-0.802-0.313-1.123-0.594c-0.472-0.412-0.813-0.981-0.917-1.603
		c-0.126-0.748,0.183-1.322,0.537-1.954c0.395-0.708,0.778-1.422,1.167-2.133c0.331-0.604,0.661-1.207,0.991-1.811h-0.005
		c0.33,0.604,0.661,1.207,0.991,1.811c0.39,0.711,0.772,1.425,1.168,2.133c0.354,0.632,0.662,1.206,0.536,1.954
		c-0.104,0.621-0.445,1.19-0.917,1.603c-0.321,0.28-0.707,0.491-1.122,0.594c-0.215,0.053-0.436,0.079-0.656,0.079"/>
</g>
</svg>
