<?xml version="1.0" encoding="utf-8"?>
<!-- Generator: Adobe Illustrator 16.0.0, SVG Export Plug-In . SVG Version: 6.00 Build 0)  -->
<!DOCTYPE svg PUBLIC "-//W3C//DTD SVG 1.1//EN" "http://www.w3.org/Graphics/SVG/1.1/DTD/svg11.dtd">
<svg version="1.1" id="Layer_1" xmlns="http://www.w3.org/2000/svg" xmlns:xlink="http://www.w3.org/1999/xlink" x="0px" y="0px"
	 width="50px" height="50px" viewBox="0 0 50 50" enable-background="new 0 0 50 50" xml:space="preserve">
<g>
	
		<path fill="none" stroke="#FFFFFF" stroke-width="1.6151" stroke-linecap="round" stroke-linejoin="round" stroke-miterlimit="10" d="
		M30.139,30.322H11.521h-0.675c-3.536,0-6.402-2.866-6.402-6.402c0-3.537,2.866-6.404,6.402-6.404c0.349,0,0.69,0.029,1.023,0.082
		v-0.244c-0.008-0.169-0.012-0.34-0.012-0.511c0-6.328,5.129-11.458,11.458-11.458c5.294,0,9.749,3.591,11.063,8.469l0.471-0.068
		c0.727-0.204,1.491-0.313,2.281-0.313c4.653,0,8.426,3.772,8.426,8.425c0,2.616-1.192,4.954-3.065,6.499"/>
	
		<line fill="none" stroke="#FFFFFF" stroke-width="1.6151" stroke-linecap="round" stroke-linejoin="round" stroke-miterlimit="10" x1="10.867" y1="34.819" x2="7.655" y2="44.455"/>
	
		<line fill="none" stroke="#FFFFFF" stroke-width="1.6151" stroke-linecap="round" stroke-linejoin="round" stroke-miterlimit="10" x1="18.897" y1="34.819" x2="15.686" y2="44.455"/>
	
		<line fill="none" stroke="#FFFFFF" stroke-width="1.6151" stroke-linecap="round" stroke-linejoin="round" stroke-miterlimit="10" x1="26.927" y1="34.819" x2="23.715" y2="44.455"/>
	<polygon fill="#FFFFFF" points="41.349,24.582 37.701,31.274 40.82,31.302 41.482,31.308 41.079,31.833 32.184,43.437 
		30.911,45.098 31.61,43.125 34.467,35.073 31.99,35.073 31.496,35.073 31.685,34.616 35.748,24.786 35.832,24.582 36.053,24.582 
		40.096,24.582 	"/>
	
		<polygon fill="none" stroke="#FFFFFF" stroke-width="0.6424" stroke-linecap="round" stroke-linejoin="round" stroke-miterlimit="10" points="
		41.349,24.582 37.701,31.274 40.82,31.302 41.482,31.308 41.079,31.833 32.184,43.437 30.911,45.098 31.61,43.125 34.467,35.073 
		31.99,35.073 31.496,35.073 31.685,34.616 35.748,24.786 35.832,24.582 36.053,24.582 40.096,24.582 	"/>
	<rect x="3.641" y="4.581" fill="none" width="42.719" height="40.838"/>
</g>
</svg>
