<?xml version="1.0" encoding="utf-8"?>
<!-- Generator: Adobe Illustrator 16.0.0, SVG Export Plug-In . SVG Version: 6.00 Build 0)  -->
<!DOCTYPE svg PUBLIC "-//W3C//DTD SVG 1.1//EN" "http://www.w3.org/Graphics/SVG/1.1/DTD/svg11.dtd">
<svg version="1.1" id="Layer_1" xmlns="http://www.w3.org/2000/svg" xmlns:xlink="http://www.w3.org/1999/xlink" x="0px" y="0px"
	 width="50px" height="50px" viewBox="0 0 50 50" enable-background="new 0 0 50 50" xml:space="preserve">
<g>
	<g>
		<path fill="none" stroke="#FFFFFF" stroke-width="1.6151" stroke-linejoin="round" stroke-miterlimit="10" d="M32.771,22.802
			c1.845,2.866,3.242,5.606,3.242,9.399c0,6.083-4.93,11.014-11.014,11.014c-4.506,0-8.381-2.708-10.086-6.583"/>
		
			<path fill="none" stroke="#FFFFFF" stroke-width="1.6151" stroke-linecap="round" stroke-linejoin="round" stroke-miterlimit="10" d="
			M14.003,32.801c-0.011-0.199-0.017-0.398-0.017-0.6c0-9.108,8.061-12.144,11.014-25.417c1.348,6.057,3.76,9.984,5.983,13.327"/>
		
			<line fill="none" stroke="#FFFFFF" stroke-width="1.6151" stroke-linecap="round" stroke-linejoin="round" stroke-miterlimit="10" x1="43.232" y1="15.717" x2="6.768" y2="43.215"/>
	</g>
	
		<path fill="none" stroke="#FFFFFF" stroke-width="1.6151" stroke-linecap="round" stroke-linejoin="round" stroke-miterlimit="10" d="
		M20.313,24.313c0,0-2.939,3.219-2.939,6.438"/>
	
		<path fill="none" stroke="#FFFFFF" stroke-width="1.6151" stroke-linecap="round" stroke-linejoin="round" stroke-miterlimit="10" d="
		M22.876,20.771c-0.207,0.287-0.603,0.725-0.771,0.979"/>
</g>
</svg>
