<svg xmlns="http://www.w3.org/2000/svg" xmlns:xlink="http://www.w3.org/1999/xlink" width="32" height="32" viewBox="0 0 32 32">
  <defs>
    <clipPath id="clip-path">
      <circle id="Ellipse_33" data-name="Ellipse 33" cx="16" cy="16" r="16" transform="translate(-0.037 0.205)" fill="none"/>
    </clipPath>
    <linearGradient id="linear-gradient" x1="-21.433" y1="13.585" x2="-21.425" y2="13.575" gradientUnits="objectBoundingBox">
      <stop offset="0" stop-color="#31ef7a"/>
      <stop offset="1" stop-color="#afee71"/>
    </linearGradient>
    <linearGradient id="linear-gradient-2" x1="-19.211" y1="12.376" x2="-19.219" y2="12.368" gradientUnits="objectBoundingBox">
      <stop offset="0" stop-color="#00bf2d" stop-opacity="0.839"/>
      <stop offset="1" stop-color="#4bce53" stop-opacity="0"/>
    </linearGradient>
    <clipPath id="clip-logo-gamee">
      <rect width="32" height="32"/>
    </clipPath>
  </defs>
  <g id="logo-gamee" clip-path="url(#clip-logo-gamee)">
    <g id="Group_3247" data-name="Group 3247" transform="translate(0.037 -0.205)" clip-path="url(#clip-path)">
      <g id="gameeLogo-badge-2" transform="translate(-2.11 -2.541)">
        <rect id="Background" width="32.998" height="34.34" transform="translate(1.804 1.866)" fill="url(#linear-gradient)"/>
        <path id="Dots" d="M32.487,36.027a.786.786,0,0,1,.468-.986.741.741,0,0,1,.948.487.827.827,0,0,1,0,.44v.059Zm-6.851,0a.743.743,0,0,1,.982-.416.781.781,0,0,1,.4.416Zm-2.135,0a.8.8,0,0,1,.04-.6.751.751,0,0,1,.439-.388.716.716,0,0,1,.568.047.765.765,0,0,1,.369.452.778.778,0,0,1,0,.428v.059Zm-6.851,0a.768.768,0,0,1,.416-.416.726.726,0,0,1,.577.012.748.748,0,0,1,.377.4Zm-2.147,0a.8.8,0,0,1,.491-.986.716.716,0,0,1,.571.052.766.766,0,0,1,.365.459.9.9,0,0,1,0,.428h0Zm-6.851,0a.741.741,0,0,1,1.37,0Zm-2.169,0A.777.777,0,0,1,6,35.088a.705.705,0,0,1,.573.047.755.755,0,0,1,.363.464.728.728,0,0,1,0,.416h0Zm-6.851,0a.742.742,0,0,1,.993-.392A.793.793,0,0,1,0,36.027Zm5.264,0a.787.787,0,0,1-.548-.951.775.775,0,0,1,.942-.588.811.811,0,0,1,.565.98.748.748,0,0,1-.731.594Zm9,0a.775.775,0,0,1-.541-.934.741.741,0,0,1,.9-.566.774.774,0,0,1,.547.93.738.738,0,0,1-.719.594.451.451,0,0,1-.171-.024Zm9,0a.787.787,0,0,1-.548-.951.742.742,0,0,1,.842-.559.767.767,0,0,1,.614.819.756.756,0,0,1-.726.714Zm9,0a.775.775,0,0,1-.541-.934.741.741,0,0,1,.9-.566.774.774,0,0,1,.547.93.738.738,0,0,1-.674.57h-.228ZM1.772,35.492a.787.787,0,0,1-.548-.939.763.763,0,0,1,.913-.57.788.788,0,0,1,.537.951.737.737,0,0,1-.719.582.486.486,0,0,1-.171-.036Zm9,0a.781.781,0,0,1-.542-.945.746.746,0,0,1,.908-.564.785.785,0,0,1,.526.846.767.767,0,0,1-.709.687Zm9,0a.787.787,0,0,1-.548-.939.751.751,0,0,1,.908-.548.786.786,0,0,1,.554.928.759.759,0,0,1-.731.582.487.487,0,0,1-.171-.048Zm9,0a.746.746,0,0,1-.46-.358.8.8,0,0,1-.077-.592.759.759,0,0,1,.337-.478.706.706,0,0,1,.565-.08.787.787,0,0,1,.548.939.771.771,0,0,1-.731.594ZM-.352,34.957A.749.749,0,0,1-.8,34.585a.8.8,0,0,1-.059-.59.771.771,0,0,1,.337-.481.717.717,0,0,1,.565-.089.787.787,0,0,1,.548.939.76.76,0,0,1-.731.594Zm9.009,0a.787.787,0,0,1-.548-.951.746.746,0,0,1,.908-.564.781.781,0,0,1,.542.945.771.771,0,0,1-.731.594H8.646Zm9,0a.745.745,0,0,1-.462-.35.8.8,0,0,1-.086-.588A.744.744,0,0,1,18,33.436a.775.775,0,0,1,.559.927.737.737,0,0,1-.719.582.45.45,0,0,1-.183,0Zm9,0a.781.781,0,0,1-.542-.945.746.746,0,0,1,.908-.564.785.785,0,0,1,.526.846.767.767,0,0,1-.709.687ZM6.545,34.375a.775.775,0,0,1-.537-.939.74.74,0,0,1,.9-.558.787.787,0,0,1,.548.939.759.759,0,0,1-.731.582.483.483,0,0,1-.183,0Zm9,0A.781.781,0,0,1,15,33.431a.746.746,0,0,1,.908-.564.787.787,0,0,1,.548.939.771.771,0,0,1-.731.594h-.183Zm9,0a.734.734,0,0,1-.459-.351A.787.787,0,0,1,24,33.436a.752.752,0,0,1,.9-.57.787.787,0,0,1,.548.951.748.748,0,0,1-.731.582.516.516,0,0,1-.183,0Zm9.009,0A.779.779,0,0,1,33,33.436a.745.745,0,0,1,.9-.57.767.767,0,0,1,.645.861.749.749,0,0,1-.828.671h-.183ZM-2,32.9a.753.753,0,0,1,.425.394.8.8,0,0,1,.031.592h0A.746.746,0,0,1-2,34.363Zm6.451.927a.745.745,0,0,1-.462-.35.8.8,0,0,1-.086-.588.746.746,0,0,1,.908-.564.781.781,0,0,1,.542.945.737.737,0,0,1-.719.582.451.451,0,0,1-.206-.024Zm9,0a.787.787,0,0,1-.548-.951.742.742,0,0,1,.842-.559.767.767,0,0,1,.614.819.756.756,0,0,1-.726.714h-.183Zm9,0a.745.745,0,0,1-.462-.35.8.8,0,0,1-.086-.588.746.746,0,0,1,.908-.564.781.781,0,0,1,.542.945.737.737,0,0,1-.719.582.452.452,0,0,1-.206-.036Zm9,0a.8.8,0,0,1-.548-.951.751.751,0,0,1,.913-.558.785.785,0,0,1,.526.846.767.767,0,0,1-.709.687ZM2.332,33.294a.776.776,0,0,1-.528-.937.741.741,0,0,1,.9-.559.774.774,0,0,1-.185,1.52Zm9,0a.734.734,0,0,1-.459-.351.787.787,0,0,1-.077-.588.752.752,0,0,1,.9-.57.8.8,0,0,1,.548.951.759.759,0,0,1-.731.582.486.486,0,0,1-.206-.048Zm9,0a.781.781,0,0,1-.542-.945.746.746,0,0,1,.908-.564.787.787,0,0,1,.548.939.771.771,0,0,1-.731.594Zm9,0a.775.775,0,0,1-.537-.939.74.74,0,0,1,.9-.558.787.787,0,0,1,.548.939.759.759,0,0,1-.731.582.521.521,0,0,1-.206-.059ZM.2,32.735a.787.787,0,0,1-.548-.951.738.738,0,0,1,.9-.511.745.745,0,0,1,.462.35.8.8,0,0,1,.086.588.749.749,0,0,1-.719.594H.2Zm9,0a.775.775,0,0,1-.541-.934.741.741,0,0,1,.9-.566.774.774,0,0,1,.547.93.738.738,0,0,1-.719.594H9.194Zm9,0a.787.787,0,0,1-.548-.951.742.742,0,0,1,.842-.559.767.767,0,0,1,.614.819.756.756,0,0,1-.726.714h-.183Zm9,0a.787.787,0,0,1-.548-.939.763.763,0,0,1,.913-.57.788.788,0,0,1,.537.951.737.737,0,0,1-.719.582h-.183ZM-1.927,32.2a.176.176,0,0,1-.1,0V30.7a.716.716,0,0,1,.578,0,.759.759,0,0,1,.4.43.8.8,0,0,1-.411,1.01.638.638,0,0,1-.468,0Zm9,0a.765.765,0,0,1-.649-.814.741.741,0,0,1,1.482,0,.765.765,0,0,1-.649.814Zm9,0a.781.781,0,0,1-.542-.945.746.746,0,0,1,.908-.564.775.775,0,0,1,.494.815.758.758,0,0,1-.654.682.484.484,0,0,1-.206-.024Zm9,0a.788.788,0,0,1-.537-.951.759.759,0,0,1,.337-.478.706.706,0,0,1,.565-.08.787.787,0,0,1,.548.939.771.771,0,0,1-.731.594Zm9,0a.731.731,0,0,1-.471-.332.786.786,0,0,1-.1-.583.774.774,0,0,1,.318-.494.718.718,0,0,1,.561-.112h.069l.137.059v1.366a.749.749,0,0,1-.5.059Zm-29.1-.582a.745.745,0,0,1-.462-.35.8.8,0,0,1-.086-.588.746.746,0,0,1,.908-.564.781.781,0,0,1,.542.945.737.737,0,0,1-.719.582.451.451,0,0,1-.183-.024Zm9,0a.745.745,0,0,1-.462-.35.8.8,0,0,1-.086-.588.771.771,0,0,1,.337-.481.717.717,0,0,1,.565-.089.768.768,0,0,1,.618.852.751.751,0,0,1-.79.681Zm9,0a.745.745,0,0,1-.462-.35.8.8,0,0,1-.086-.588.746.746,0,0,1,.908-.564.781.781,0,0,1,.542.945.737.737,0,0,1-.719.582.452.452,0,0,1-.183-.036Zm9,0a.792.792,0,0,1-.554-.957.757.757,0,0,1,.919-.576.785.785,0,0,1,.526.846.767.767,0,0,1-.709.687ZM2.834,31.084a.781.781,0,0,1-.542-.945.746.746,0,0,1,.908-.564.785.785,0,0,1,.526.846.767.767,0,0,1-.709.687Zm9,0a.8.8,0,0,1-.548-.951.751.751,0,0,1,.913-.558.734.734,0,0,1,.459.351.787.787,0,0,1,.077.588.76.76,0,0,1-.719.594.494.494,0,0,1-.183,0Zm9,0a.781.781,0,0,1-.542-.945.746.746,0,0,1,.908-.564.767.767,0,0,1,.645.861.749.749,0,0,1-.828.671Zm9,0a.788.788,0,0,1-.537-.951.74.74,0,0,1,.9-.558.781.781,0,0,1-.183,1.533ZM.71,30.525a.781.781,0,0,1-.542-.945.743.743,0,0,1,1.37-.214.8.8,0,0,1,.086.588.76.76,0,0,1-.731.594Zm9.009,0a.745.745,0,0,1-.462-.35.8.8,0,0,1-.086-.588.746.746,0,0,1,.908-.564.781.781,0,0,1,.542.945.748.748,0,0,1-.731.582.43.43,0,0,1-.171-.036Zm9,0a.765.765,0,0,1-.649-.814.741.741,0,0,1,1.482,0,.765.765,0,0,1-.649.814Zm9,0a.745.745,0,0,1-.462-.35.8.8,0,0,1-.086-.588.746.746,0,0,1,.908-.564.781.781,0,0,1,.542.945.737.737,0,0,1-.719.582.453.453,0,0,1-.206-.048ZM-1.4,29.991a.736.736,0,0,1-.45-.362.788.788,0,0,1-.064-.588.768.768,0,0,1,.355-.469.716.716,0,0,1,.57-.066.789.789,0,0,1,.514.962.746.746,0,0,1-.731.558h-.183Zm9,0a.781.781,0,0,1-.542-.945.746.746,0,0,1,.908-.564.785.785,0,0,1,.526.846.767.767,0,0,1-.709.687Zm9,0a.787.787,0,0,1-.548-.939.773.773,0,0,1,.522-.585.733.733,0,0,1,.744.194.806.806,0,0,1,.2.771.759.759,0,0,1-.731.582.488.488,0,0,1-.183-.059Zm9,0a.781.781,0,0,1-.542-.945.746.746,0,0,1,.908-.564.787.787,0,0,1,.548.939.771.771,0,0,1-.731.594Zm8.461-.951a.736.736,0,0,1,.514-.558v1.5a.777.777,0,0,1-.514-.939Zm-28.545.416a.734.734,0,0,1-.459-.351.787.787,0,0,1-.077-.588.752.752,0,0,1,.9-.57.8.8,0,0,1,.548.951.759.759,0,0,1-.731.582.521.521,0,0,1-.206-.059Zm9,0a.776.776,0,0,1-.528-.937.741.741,0,0,1,.9-.559.774.774,0,0,1,.546.926.76.76,0,0,1-.731.594H14.5Zm9.009,0a.745.745,0,0,1-.462-.35.8.8,0,0,1-.086-.588.746.746,0,0,1,.908-.564.781.781,0,0,1,.542.945.737.737,0,0,1-.719.582.456.456,0,0,1-.206-.071Zm9,0a.252.252,0,0,0,.166-.43.235.235,0,0,0-.177-.069.245.245,0,0,0-.24.25.268.268,0,0,0,.24.25ZM3.371,28.9a.788.788,0,0,1-.565-.945.756.756,0,0,1,.908-.588.768.768,0,0,1,.613.845.752.752,0,0,1-.773.688Zm9,0a.8.8,0,0,1-.548-.951.77.77,0,0,1,.344-.479.717.717,0,0,1,.569-.08.734.734,0,0,1,.459.351.787.787,0,0,1,.077.588.76.76,0,0,1-.719.594Zm9,0a.781.781,0,0,1-.542-.945.746.746,0,0,1,.908-.564.788.788,0,0,1,.474.829.769.769,0,0,1-.656.68h-.183Zm9,0a.8.8,0,0,1-.548-.951.751.751,0,0,1,.913-.558.734.734,0,0,1,.459.351.787.787,0,0,1,.077.588.76.76,0,0,1-.719.594Zm-29.116-.57a.746.746,0,0,1-.46-.358.8.8,0,0,1-.077-.592.759.759,0,0,1,.337-.478.706.706,0,0,1,.565-.08.787.787,0,0,1,.548.939.771.771,0,0,1-.731.594H1.247Zm9,0a.773.773,0,0,1-.565-.921.743.743,0,0,1,.885-.588.787.787,0,0,1,.548.939.759.759,0,0,1-.731.582H10.2Zm9,0a.781.781,0,0,1-.542-.945.746.746,0,0,1,.908-.564.767.767,0,0,1,.645.861.749.749,0,0,1-.828.671Zm9.009,0a.745.745,0,0,1-.462-.35.8.8,0,0,1-.086-.588.743.743,0,0,1,.842-.572.767.767,0,0,1,.617.826.755.755,0,0,1-.74.708.516.516,0,0,1-.183,0Zm-29.1-.558a.745.745,0,0,1-.462-.35A.8.8,0,0,1-1.4,26.83a.752.752,0,0,1,.9-.57.787.787,0,0,1,.548.951.737.737,0,0,1-.719.582.451.451,0,0,1-.183-.024Zm9,0A.779.779,0,0,1,7.6,26.83a.745.745,0,0,1,.9-.57.771.771,0,0,1,.628.879.749.749,0,0,1-.845.654Zm9,0a.745.745,0,0,1-.462-.35.8.8,0,0,1-.086-.588.763.763,0,0,1,.913-.57.788.788,0,0,1,.537.951.737.737,0,0,1-.719.582.458.458,0,0,1-.194-.083Zm9,0a.8.8,0,0,1-.525-.974.756.756,0,0,1,.936-.547.785.785,0,0,1,.526.846.767.767,0,0,1-.709.687ZM6,27.222a.764.764,0,0,1-.655-.812.741.741,0,0,1,1.482,0,.764.764,0,0,1-.655.812Zm9,0a.779.779,0,0,1-.548-.939.745.745,0,0,1,.9-.57.787.787,0,0,1,.548.951.737.737,0,0,1-.719.582.45.45,0,0,1-.183,0Zm9,0a.745.745,0,0,1-.462-.35.8.8,0,0,1-.086-.588.743.743,0,0,1,.838-.572.766.766,0,0,1,.621.818.756.756,0,0,1-.729.716h-.183Zm9,0a.745.745,0,0,1-.462-.35.8.8,0,0,1-.086-.588.746.746,0,0,1,.908-.564.781.781,0,0,1,.542.945.737.737,0,0,1-.719.582.45.45,0,0,1-.183,0Zm1.564-.356v.309A.7.7,0,0,1,34.553,26.866ZM3.9,26.664a.765.765,0,0,1-.649-.814.741.741,0,0,1,1.482,0,.765.765,0,0,1-.649.814A.483.483,0,0,1,3.9,26.664Zm9,0a.755.755,0,0,1,.74.364.824.824,0,0,1,0,.852.755.755,0,0,1-.74.364.8.8,0,0,1,0-1.58Zm9,0a.788.788,0,0,1-.526-.945.753.753,0,0,1,.892-.576.8.8,0,0,1,.548.951.759.759,0,0,1-.731.582Zm9,0a.776.776,0,0,1-.661-.826.752.752,0,0,1,1.5,0,.776.776,0,0,1-.661.826Zm-29.1-.547a.745.745,0,0,1-.462-.35.8.8,0,0,1-.086-.588.752.752,0,0,1,.9-.57.787.787,0,0,1,.548.951.737.737,0,0,1-.719.582.45.45,0,0,1-.183,0Zm9,0a.787.787,0,0,1-.548-.951.742.742,0,0,1,.842-.559.767.767,0,0,1,.614.819.756.756,0,0,1-.726.714Zm9,0a.745.745,0,0,1-.462-.35.8.8,0,0,1-.086-.588.746.746,0,0,1,.908-.564.781.781,0,0,1,.542.945.737.737,0,0,1-.719.582.452.452,0,0,1-.183-.036Zm9,0a.781.781,0,0,1-.542-.945.746.746,0,0,1,.908-.564.785.785,0,0,1,.526.846.767.767,0,0,1-.709.687h-.183ZM-.34,25.57a.789.789,0,0,1-.514-.939.752.752,0,0,1,.913-.57A.775.775,0,0,1,.6,25a.749.749,0,0,1-.719.594Zm9,0a.765.765,0,0,1-.649-.814.741.741,0,0,1,1.482,0,.765.765,0,0,1-.649.814A.483.483,0,0,1,8.657,25.57Zm9,0a.781.781,0,0,1-.542-.945.746.746,0,0,1,.908-.564.787.787,0,0,1,.548.939.771.771,0,0,1-.731.594Zm9,0a.734.734,0,0,1-.459-.351.787.787,0,0,1-.077-.588.752.752,0,0,1,.9-.57.8.8,0,0,1,.548.951.759.759,0,0,1-.731.582.52.52,0,0,1-.183-.048ZM6.545,25.012a.745.745,0,0,1-.462-.35A.8.8,0,0,1,6,24.073a.746.746,0,0,1,.908-.564.781.781,0,0,1,.542.945.737.737,0,0,1-.719.582.451.451,0,0,1-.183-.024Zm9,0a.745.745,0,0,1-.462-.35.8.8,0,0,1-.086-.588.771.771,0,0,1,.337-.481A.717.717,0,0,1,15.9,23.5a.768.768,0,0,1,.618.852.751.751,0,0,1-.79.681Zm9,0a.745.745,0,0,1-.462-.35.8.8,0,0,1-.086-.588.746.746,0,0,1,.908-.564.781.781,0,0,1,.542.945.737.737,0,0,1-.719.582A.452.452,0,0,1,24.54,25Zm9,0a.8.8,0,0,1-.548-.951A.751.751,0,0,1,33.9,23.5a.734.734,0,0,1,.459.351.787.787,0,0,1,.077.588.749.749,0,0,1-.719.594ZM-2,23.539a.781.781,0,0,1,.445.986h0A.747.747,0,0,1-2,25Zm6.44.927a.765.765,0,0,1-.649-.814.741.741,0,0,1,1.482,0,.765.765,0,0,1-.649.814Zm9,0a.734.734,0,0,1-.459-.351.787.787,0,0,1-.077-.588.752.752,0,0,1,.9-.57.8.8,0,0,1,.548.951.759.759,0,0,1-.731.582.485.485,0,0,1-.206-.036Zm9,0a.777.777,0,0,1-.554-.933.744.744,0,0,1,.9-.576.787.787,0,0,1,.548.939.771.771,0,0,1-.731.594h-.183Zm9.009,0a.775.775,0,0,1-.559-.927.744.744,0,0,1,.891-.582.787.787,0,0,1,.548.939.759.759,0,0,1-.731.582.43.43,0,0,1-.171-.036ZM2.332,23.943a.787.787,0,0,1-.548-.951.77.77,0,0,1,.344-.479.717.717,0,0,1,.569-.08.734.734,0,0,1,.459.351.787.787,0,0,1,.077.588.749.749,0,0,1-.719.594H2.332Zm9,0a.8.8,0,0,1-.554-.968.764.764,0,0,1,.931-.576.785.785,0,0,1,.526.846.767.767,0,0,1-.709.687Zm9,0a.8.8,0,0,1-.548-.951.751.751,0,0,1,.913-.558.734.734,0,0,1,.459.351.787.787,0,0,1,.077.588.749.749,0,0,1-.719.594h-.183Zm9,0A.775.775,0,0,1,28.787,23a.74.74,0,0,1,.9-.558.775.775,0,0,1,.537.939.737.737,0,0,1-.719.582ZM.208,23.408a.734.734,0,0,1-.459-.351.787.787,0,0,1-.077-.588.752.752,0,0,1,.9-.57.8.8,0,0,1,.548.951.759.759,0,0,1-.731.582.522.522,0,0,1-.206-.071Zm9,0a.781.781,0,0,1-.542-.945.746.746,0,0,1,.908-.564.787.787,0,0,1,.548.939.771.771,0,0,1-.731.594Zm9,0a.775.775,0,0,1-.537-.939.752.752,0,0,1,.9-.57.8.8,0,0,1,.548.951.748.748,0,0,1-.731.582.524.524,0,0,1-.206-.083Zm9.009,0a.787.787,0,0,1-.548-.951.746.746,0,0,1,.908-.564.781.781,0,0,1,.542.945.76.76,0,0,1-.731.594ZM-1.9,22.873H-2V21.34a.744.744,0,0,1,.971.44.8.8,0,0,1-.422,1.01.758.758,0,0,1-.457,0Zm9,0a.8.8,0,0,1-.548-.951.751.751,0,0,1,.913-.558.734.734,0,0,1,.459.351A.787.787,0,0,1,8,22.3a.749.749,0,0,1-.719.594Zm9,0a.781.781,0,0,1-.542-.945.746.746,0,0,1,.908-.564.793.793,0,0,1,.4.8.773.773,0,0,1-.583.664Zm9,0a.8.8,0,0,1-.548-.951.751.751,0,0,1,.913-.558.734.734,0,0,1,.459.351.787.787,0,0,1,.077.588.749.749,0,0,1-.719.594Zm9,0a.781.781,0,0,1-.542-.945.746.746,0,0,1,.908-.564l.148.059v1.39A.705.705,0,0,1,34.085,22.873ZM4.969,22.339a.781.781,0,0,1-.542-.945.746.746,0,0,1,.908-.564.767.767,0,0,1,.645.861.749.749,0,0,1-.828.671.529.529,0,0,1-.206-.107Zm9,0a.788.788,0,0,1-.537-.951.746.746,0,0,1,.908-.564.781.781,0,0,1,.542.945.76.76,0,0,1-.731.594Zm9.009,0a.745.745,0,0,1-.462-.35.8.8,0,0,1-.086-.588.743.743,0,0,1,.842-.572.767.767,0,0,1,.617.826.755.755,0,0,1-.74.708.442.442,0,0,1-.194-.119Zm9,0a.765.765,0,0,1-.649-.814.741.741,0,0,1,1.482,0,.765.765,0,0,1-.649.814Zm-29.139-.57a.779.779,0,0,1-.548-.939.745.745,0,0,1,.9-.57.773.773,0,0,1,.519.829.756.756,0,0,1-.69.68Zm9,0a.781.781,0,0,1-.542-.945.746.746,0,0,1,.908-.564.734.734,0,0,1,.459.351.787.787,0,0,1,.077.588.749.749,0,0,1-.719.594Zm9,0a.765.765,0,0,1-.649-.814.741.741,0,0,1,1.482,0,.765.765,0,0,1-.649.814A.483.483,0,0,1,20.829,21.768Zm9,0a.744.744,0,1,1,.148,0h-.148ZM.71,21.162a.781.781,0,0,1-.542-.945.746.746,0,0,1,.908-.564.787.787,0,0,1,.548.939.771.771,0,0,1-.731.594Zm9,0a.775.775,0,0,1-.537-.939.74.74,0,0,1,.9-.558.787.787,0,0,1,.548.939.759.759,0,0,1-.731.582H9.708Zm9.009,0a.779.779,0,0,1-.548-.939A.738.738,0,0,1,19.533,20a.8.8,0,0,1,.086.588.76.76,0,0,1-.731.594Zm9,0a.745.745,0,0,1-.462-.35.8.8,0,0,1-.086-.588.746.746,0,0,1,.908-.564.781.781,0,0,1,.542.945.737.737,0,0,1-.719.582.453.453,0,0,1-.206-.048ZM-1.4,20.58a.787.787,0,0,1-.548-.951.74.74,0,0,1,.9-.558.745.745,0,0,1,.462.35A.8.8,0,0,1-.5,20.01a.749.749,0,0,1-.719.594H-1.4Zm9,0a.779.779,0,0,1-.548-.939.745.745,0,0,1,.9-.57.773.773,0,0,1,.519.829.756.756,0,0,1-.69.68Zm9,0a.8.8,0,0,1-.548-.951.77.77,0,0,1,.344-.479.717.717,0,0,1,.569-.08.734.734,0,0,1,.459.351.787.787,0,0,1,.077.588.749.749,0,0,1-.719.594Zm9,0a.788.788,0,0,1-.537-.951.759.759,0,0,1,.337-.478.706.706,0,0,1,.565-.08.787.787,0,0,1,.548.939.759.759,0,0,1-.731.582Zm8.461-.951a.771.771,0,0,1,.525-.57V20.58a.788.788,0,0,1-.525-.939Zm-28.545.4a.775.775,0,0,1-.541-.934.741.741,0,0,1,.9-.566.774.774,0,0,1,.547.93.738.738,0,0,1-.719.594Zm9,0a.787.787,0,0,1-.548-.951.742.742,0,0,1,.842-.559.767.767,0,0,1,.614.819.756.756,0,0,1-.726.714Zm9,0a.781.781,0,0,1-.542-.945.746.746,0,0,1,.908-.564.785.785,0,0,1,.526.846.767.767,0,0,1-.709.687H23.5Zm9,0a.8.8,0,0,1-.548-.951.751.751,0,0,1,.913-.558.734.734,0,0,1,.459.351.787.787,0,0,1,.077.588.749.749,0,0,1-.719.594ZM3.359,19.511a.779.779,0,0,1-.548-.939.745.745,0,0,1,.9-.57.787.787,0,0,1,.548.939.771.771,0,0,1-.731.594H3.348Zm9,0a.775.775,0,0,1-.537-.939.74.74,0,0,1,.9-.558.787.787,0,0,1,.548.939.759.759,0,0,1-.731.582.428.428,0,0,1-.171,0Zm9.009,0a.787.787,0,0,1-.548-.951A.746.746,0,0,1,21.725,18a.781.781,0,0,1,.542.945.76.76,0,0,1-.731.594h-.171Zm9,0a.745.745,0,0,1-.462-.35.8.8,0,0,1-.086-.588.746.746,0,0,1,.908-.564.781.781,0,0,1,.542.945.737.737,0,0,1-.719.582.453.453,0,0,1-.183-.048Zm-2.124-.523a.764.764,0,0,1-.655-.812.741.741,0,0,1,1.482,0,.764.764,0,0,1-.655.812Zm-26.992,0a.745.745,0,0,1-.462-.35A.8.8,0,0,1,.7,18.049a.746.746,0,0,1,.908-.564.781.781,0,0,1,.542.945.737.737,0,0,1-.719.582.455.455,0,0,1-.183-.059Zm9,0a.791.791,0,0,1-.582-.939.76.76,0,0,1,.9-.606.785.785,0,0,1,.526.846.767.767,0,0,1-.709.687Zm9,0a.787.787,0,0,1-.548-.939.763.763,0,0,1,.913-.57.788.788,0,0,1,.537.951.737.737,0,0,1-.719.582.49.49,0,0,1-.183-.071Zm-20.1-.582a.775.775,0,0,1-.537-.939.742.742,0,0,1,.879-.57.787.787,0,0,1,.548.939.76.76,0,0,1-.731.594Zm9,0a.788.788,0,0,1-.537-.951.759.759,0,0,1,.337-.478.706.706,0,0,1,.565-.08.787.787,0,0,1,.548.939.771.771,0,0,1-.731.594Zm9,0a.776.776,0,0,1-.661-.826.752.752,0,0,1,1.5,0,.776.776,0,0,1-.661.826Zm9.009,0a.787.787,0,0,1-.548-.951.746.746,0,0,1,.908-.564.781.781,0,0,1,.542.945.76.76,0,0,1-.731.594ZM6,17.859a.8.8,0,0,1-.548-.951.751.751,0,0,1,.913-.558.734.734,0,0,1,.459.351.787.787,0,0,1,.077.588.749.749,0,0,1-.719.594Zm9,0a.781.781,0,0,1-.542-.945.737.737,0,0,1,1.368-.206.8.8,0,0,1,.077.592.737.737,0,0,1-.719.582Zm9,0a.8.8,0,0,1-.548-.951.751.751,0,0,1,.908-.548.786.786,0,0,1,.554.928.771.771,0,0,1-.731.594Zm9,0a.8.8,0,0,1-.531-.98.814.814,0,0,1,1.587.309.749.749,0,0,1-.828.671h-.228Zm1.553-.4v.356a.939.939,0,0,1,0-.356ZM3.9,17.3a.733.733,0,0,1-.467-.348.787.787,0,0,1-.081-.591.743.743,0,0,1,.842-.572.767.767,0,0,1,.617.826.755.755,0,0,1-.74.708A.429.429,0,0,1,3.9,17.3Zm9,0a.775.775,0,0,1-.541-.934.741.741,0,0,1,.9-.566.774.774,0,0,1,.547.93.76.76,0,0,1-.719.594Zm9,0a.745.745,0,0,1-.462-.35.8.8,0,0,1-.086-.588.746.746,0,0,1,.908-.564.781.781,0,0,1,.542.945.737.737,0,0,1-.719.582.452.452,0,0,1-.183-.036Zm9,0a.782.782,0,0,1-.412-.89.746.746,0,0,1,.766-.584.775.775,0,0,1,.483.793.761.761,0,0,1-.609.693ZM1.772,16.754a.775.775,0,0,1-.537-.939.74.74,0,0,1,.9-.558.772.772,0,0,1,.554.844.753.753,0,0,1-.736.677.451.451,0,0,1-.183-.024Zm9,0a.781.781,0,0,1-.542-.945.746.746,0,0,1,.908-.564.785.785,0,0,1,.526.846.767.767,0,0,1-.709.687Zm9,0a.787.787,0,0,1-.548-.939.773.773,0,0,1,.522-.585.733.733,0,0,1,.744.194.806.806,0,0,1,.2.771.759.759,0,0,1-.731.582.485.485,0,0,1-.183-.036Zm9,0a.781.781,0,0,1-.542-.945.746.746,0,0,1,.908-.564.787.787,0,0,1,.548.939.771.771,0,0,1-.731.594ZM-.352,16.219a.777.777,0,0,1-.5-.951.76.76,0,0,1,.334-.486A.706.706,0,0,1,.048,14.7a.745.745,0,0,1,.462.35.8.8,0,0,1,.086.588.76.76,0,0,1-.731.594Zm9,0a.775.775,0,0,1-.537-.939.74.74,0,0,1,.9-.558.772.772,0,0,1,.554.844.753.753,0,0,1-.736.677.52.52,0,0,1-.183-.048Zm9.009,0a.775.775,0,0,1-.541-.934.741.741,0,0,1,.9-.566.774.774,0,0,1,.547.93.76.76,0,0,1-.731.594Zm9,0a.745.745,0,0,1-.462-.35.8.8,0,0,1-.086-.588.746.746,0,0,1,.908-.564.781.781,0,0,1,.542.945.737.737,0,0,1-.719.582.45.45,0,0,1-.183,0Zm-20.119-.57a.734.734,0,0,1-.459-.351A.787.787,0,0,1,6,14.71a.752.752,0,0,1,.9-.57.8.8,0,0,1,.548.951.759.759,0,0,1-.731.582.517.517,0,0,1-.183-.024Zm9,0a.788.788,0,0,1-.537-.951.746.746,0,0,1,.908-.564.781.781,0,0,1,.542.945.76.76,0,0,1-.731.594Zm9.009,0a.733.733,0,0,1-.467-.348.787.787,0,0,1-.082-.591.743.743,0,0,1,.842-.572.767.767,0,0,1,.617.826.755.755,0,0,1-.74.708.43.43,0,0,1-.171-.036Zm9,0a.787.787,0,0,1-.548-.951.742.742,0,0,1,.842-.559.767.767,0,0,1,.614.819.756.756,0,0,1-.726.714ZM-2,14.175a.794.794,0,0,1,.445,1h0A.793.793,0,0,1-2,15.637Zm6.44.927a.775.775,0,0,1-.541-.934.741.741,0,0,1,.9-.566.774.774,0,0,1,.547.93.738.738,0,0,1-.719.594H4.444Zm9,0a.8.8,0,0,1-.548-.951.77.77,0,0,1,.344-.479.717.717,0,0,1,.569-.08.734.734,0,0,1,.459.351.787.787,0,0,1,.077.588.749.749,0,0,1-.719.594h-.183Zm9,0a.745.745,0,0,1-.462-.35.8.8,0,0,1-.086-.588.752.752,0,0,1,.913-.57.785.785,0,0,1,.526.846.767.767,0,0,1-.709.687h-.183Zm9,0a.788.788,0,0,1-.537-.951.74.74,0,0,1,.9-.558.775.775,0,0,1,.537.939.76.76,0,0,1-.719.594h-.183ZM2.32,14.568a.765.765,0,0,1-.649-.814.755.755,0,0,1,.741-.725.755.755,0,0,1,.741.725.765.765,0,0,1-.649.814Zm9,0a.734.734,0,0,1-.459-.351.787.787,0,0,1-.077-.588.752.752,0,0,1,.9-.57.8.8,0,0,1,.548.951.759.759,0,0,1-.731.582.519.519,0,0,1-.206-.048Zm9,0a.781.781,0,0,1-.542-.945.746.746,0,0,1,.908-.564.787.787,0,0,1,.548.939.771.771,0,0,1-.731.594Zm9,0a.781.781,0,0,1-.542-.945.746.746,0,0,1,.908-.564.767.767,0,0,1,.645.861.749.749,0,0,1-.828.671.516.516,0,0,1-.183,0ZM.174,14.009a.788.788,0,0,1-.537-.951.74.74,0,0,1,.9-.558.787.787,0,0,1,.548.951.748.748,0,0,1-.731.582Zm9.009,0a.775.775,0,0,1-.537-.939.74.74,0,0,1,.9-.558.775.775,0,0,1,.537.939.76.76,0,0,1-.731.594Zm9,0a.745.745,0,0,1-.462-.35.8.8,0,0,1-.086-.588.746.746,0,0,1,.908-.564.781.781,0,0,1,.542.945.737.737,0,0,1-.719.582H18.18Zm9,0a.781.781,0,0,1-.542-.945.746.746,0,0,1,.908-.564.785.785,0,0,1,.526.846.767.767,0,0,1-.709.687Zm-29.116-.558H-2V11.977a.715.715,0,0,1,.574.008.76.76,0,0,1,.4.432.794.794,0,0,1-.434,1.01.66.66,0,0,1-.457,0Zm9,0a.776.776,0,0,1-.528-.937.741.741,0,0,1,.9-.559.774.774,0,0,1,.546.926.76.76,0,0,1-.731.594Zm9.009,0a.745.745,0,0,1-.462-.35.8.8,0,0,1-.086-.588.746.746,0,0,1,.908-.564.781.781,0,0,1,.542.945.748.748,0,0,1-.7.558A.428.428,0,0,1,16.068,13.451Zm9,0a.765.765,0,0,1-.649-.814.741.741,0,0,1,1.482,0,.765.765,0,0,1-.649.814Zm9,0a.745.745,0,0,1-.462-.35.8.8,0,0,1-.086-.588.752.752,0,0,1,.913-.57h.148v1.4a.7.7,0,0,1-.514,0ZM4.946,12.928a.792.792,0,0,1-.554-.957.757.757,0,0,1,.919-.576.734.734,0,0,1,.459.351.787.787,0,0,1,.077.588.76.76,0,0,1-.719.594Zm9,0a.781.781,0,0,1-.542-.945.746.746,0,0,1,.908-.564.785.785,0,0,1,.526.846.767.767,0,0,1-.709.687Zm9,0a.8.8,0,0,1-.548-.951.751.751,0,0,1,.913-.558.734.734,0,0,1,.459.351.787.787,0,0,1,.077.588.76.76,0,0,1-.719.594h-.183Zm9,0a.775.775,0,0,1-.537-.939.74.74,0,0,1,.9-.558.775.775,0,0,1,.537.939.737.737,0,0,1-.719.582Zm-29.1-.582A.745.745,0,0,1,2.372,12a.8.8,0,0,1-.086-.588.743.743,0,0,1,.842-.572.767.767,0,0,1,.617.826.755.755,0,0,1-.74.708.428.428,0,0,1-.171,0Zm9,0a.765.765,0,0,1-.649-.814.741.741,0,0,1,1.482,0,.765.765,0,0,1-.649.814Zm9,0a.775.775,0,0,1-.541-.934.741.741,0,0,1,.9-.566.774.774,0,0,1,.547.93.738.738,0,0,1-.719.594.45.45,0,0,1-.183,0Zm9,0a.787.787,0,0,1-.548-.951.77.77,0,0,1,.344-.479.717.717,0,0,1,.569-.08.734.734,0,0,1,.459.351.787.787,0,0,1,.077.588.749.749,0,0,1-.719.594h-.183ZM.71,11.8a.781.781,0,0,1-.542-.945.746.746,0,0,1,.908-.564.775.775,0,0,1,.537.939.749.749,0,0,1-.719.594H.71Zm9,0a.745.745,0,0,1-.462-.35.8.8,0,0,1-.086-.588.771.771,0,0,1,.487-.705.723.723,0,0,1,.809.212.8.8,0,0,1,.108.861.737.737,0,0,1-.719.582H9.708Zm9,0a.781.781,0,0,1-.542-.945.746.746,0,0,1,.908-.564.734.734,0,0,1,.459.351.787.787,0,0,1,.077.588.749.749,0,0,1-.719.594Zm9,0a.787.787,0,0,1-.548-.939.74.74,0,0,1,1.373-.212.8.8,0,0,1,.077.592.737.737,0,0,1-.719.582.486.486,0,0,1-.194-.048Zm-29.116-.535a.73.73,0,0,1-.5-.345A.787.787,0,0,1-2,10.3a.759.759,0,0,1,.337-.478.706.706,0,0,1,.565-.08.787.787,0,0,1,.548.939.759.759,0,0,1-.731.582.417.417,0,0,1-.171,0Zm9,0a.776.776,0,0,1-.528-.937.741.741,0,0,1,.9-.559.774.774,0,0,1,.546.926.76.76,0,0,1-.731.594Zm9.009,0a.787.787,0,0,1-.548-.951.742.742,0,0,1,.842-.559.767.767,0,0,1,.614.819.756.756,0,0,1-.726.714Zm9,0a.787.787,0,0,1-.548-.939.763.763,0,0,1,.913-.57.788.788,0,0,1,.537.951.737.737,0,0,1-.719.582.455.455,0,0,1-.183-.059Zm8.449-.951a.775.775,0,0,1,.5-.594v1.5a.775.775,0,0,1-.537-.939ZM5.495,10.73a.781.781,0,0,1-.542-.945.746.746,0,0,1,.908-.564.79.79,0,0,1,.446.83.769.769,0,0,1-.651.667H5.472Zm9,0a.765.765,0,0,1-.649-.814.741.741,0,0,1,1.482,0,.765.765,0,0,1-.649.814A.516.516,0,0,1,14.492,10.73Zm9,0a.775.775,0,0,1-.537-.939.74.74,0,0,1,.9-.558.775.775,0,0,1,.537.939.737.737,0,0,1-.719.582h-.183Zm9,0a.788.788,0,0,1-.537-.951.759.759,0,0,1,.337-.478.706.706,0,0,1,.565-.08.781.781,0,0,1-.183,1.533h-.183ZM3.348,10.147a.746.746,0,0,1-.46-.358A.8.8,0,0,1,2.811,9.2a.746.746,0,0,1,.908-.564.781.781,0,0,1,.542.945.76.76,0,0,1-.731.594H3.359Zm9.009,0A.733.733,0,0,1,11.89,9.8a.787.787,0,0,1-.081-.591.743.743,0,0,1,.842-.572.767.767,0,0,1,.617.826.755.755,0,0,1-.74.708.428.428,0,0,1-.171,0Zm9,0a.787.787,0,0,1-.548-.951.742.742,0,0,1,.842-.559.767.767,0,0,1,.614.819.756.756,0,0,1-.726.714Zm9,0a.787.787,0,0,1-.548-.939.763.763,0,0,1,.913-.57.788.788,0,0,1,.537.951.737.737,0,0,1-.719.582.487.487,0,0,1-.183-.048ZM1.236,9.6a.8.8,0,0,1-.548-.9A.751.751,0,0,1,1.6,8.139a.734.734,0,0,1,.459.351.787.787,0,0,1,.077.588.749.749,0,0,1-.719.594Zm9,0a.776.776,0,0,1-.661-.826.752.752,0,0,1,1.5,0,.776.776,0,0,1-.661.826Zm9,0a.788.788,0,0,1-.526-.945A.753.753,0,0,1,19.6,8.08a.783.783,0,0,1,.564.856.765.765,0,0,1-.747.688Zm9,0a.776.776,0,0,1-.661-.826.752.752,0,0,1,1.5,0,.776.776,0,0,1-.661.826ZM-.854,9.042a.731.731,0,0,1-.481-.34.787.787,0,0,1-.09-.6.784.784,0,0,1,.332-.492.729.729,0,0,1,.57-.1.787.787,0,0,1,.548.951.748.748,0,0,1-.731.582.428.428,0,0,1-.171,0Zm9,0A.787.787,0,0,1,7.6,8.092a.741.741,0,0,1,.857-.556.769.769,0,0,1,.6.848.752.752,0,0,1-.768.682H8.1Zm9,0a.745.745,0,0,1-.462-.35.8.8,0,0,1-.086-.588.746.746,0,0,1,.908-.564.781.781,0,0,1,.542.945.737.737,0,0,1-.719.582.452.452,0,0,1-.206-.036Zm9,0a.765.765,0,0,1-.649-.814.741.741,0,0,1,1.482,0,.765.765,0,0,1-.649.814ZM6,8.5a.758.758,0,0,1-.471-.374A.812.812,0,0,1,5.46,7.51a.74.74,0,0,1,.9-.558.787.787,0,0,1,.548.939.771.771,0,0,1-.731.594Zm9.009,0a.745.745,0,0,1-.483-.368.8.8,0,0,1-.065-.619.752.752,0,0,1,.9-.57.8.8,0,0,1,.548.951.759.759,0,0,1-.731.582h-.171Zm9,0a.787.787,0,0,1-.548-.951.742.742,0,0,1,.842-.559.767.767,0,0,1,.614.819.756.756,0,0,1-.726.714H24Zm9,0a.775.775,0,0,1-.541-.934.741.741,0,0,1,.9-.566.774.774,0,0,1,.547.93.738.738,0,0,1-.719.594H33Zm1.541-.416h0v.4a.766.766,0,0,1,0-.392ZM3.885,7.937A.787.787,0,0,1,3.336,7a.763.763,0,0,1,.913-.57.788.788,0,0,1,.537.951.737.737,0,0,1-.719.582.45.45,0,0,1-.183,0Zm9,0a.781.781,0,0,1-.542-.945.746.746,0,0,1,.908-.564.785.785,0,0,1,.526.846.767.767,0,0,1-.709.687Zm9,0A.787.787,0,0,1,21.331,7a.763.763,0,0,1,.913-.57.788.788,0,0,1,.537.951.737.737,0,0,1-.719.582.483.483,0,0,1-.183,0Zm9,0a.781.781,0,0,1-.542-.945.746.746,0,0,1,.908-.564.787.787,0,0,1,.548.939.771.771,0,0,1-.731.594h-.183ZM1.761,7.391a.776.776,0,0,1-.528-.937.741.741,0,0,1,.9-.559.774.774,0,0,1,.546.926.76.76,0,0,1-.731.594Zm9.009,0a.787.787,0,0,1-.548-.951.742.742,0,0,1,.842-.559.767.767,0,0,1,.614.819.756.756,0,0,1-.726.714Zm9,0a.745.745,0,0,1-.462-.35.8.8,0,0,1-.086-.588.746.746,0,0,1,.908-.564.781.781,0,0,1,.542.945.737.737,0,0,1-.719.582h-.183Zm9,0a.787.787,0,0,1-.548-.951.77.77,0,0,1,.344-.479.717.717,0,0,1,.569-.08.734.734,0,0,1,.459.351.787.787,0,0,1,.077.588.749.749,0,0,1-.719.594h-.183ZM-.352,6.844a.789.789,0,0,1-.5-.939.752.752,0,0,1,.913-.57.75.75,0,0,1,.447.385.8.8,0,0,1,.044.6.749.749,0,0,1-.719.594H-.352Zm9,0A.787.787,0,0,1,8.1,5.905a.763.763,0,0,1,.913-.57.788.788,0,0,1,.537.951.737.737,0,0,1-.719.582.483.483,0,0,1-.183,0Zm9,0a.765.765,0,0,1-.649-.814.741.741,0,0,1,1.482,0,.765.765,0,0,1-.649.814Zm9,0A.781.781,0,0,1,26.1,5.9a.746.746,0,0,1,.908-.564.8.8,0,0,1,.548.951.759.759,0,0,1-.731.582.483.483,0,0,1-.183,0ZM6.534,6.321a.746.746,0,0,1-.47-.367A.8.8,0,0,1,6,5.347.746.746,0,0,1,6.9,4.783a.781.781,0,0,1,.542.945.737.737,0,0,1-.731.594Zm9,0a.787.787,0,0,1-.548-.951.742.742,0,0,1,.842-.559.767.767,0,0,1,.614.819.756.756,0,0,1-.726.714h-.183Zm9,0a.779.779,0,0,1-.548-.939.745.745,0,0,1,.9-.57.773.773,0,0,1,.519.829.756.756,0,0,1-.69.68A.45.45,0,0,1,24.528,6.321Zm9,0a.787.787,0,0,1-.548-.951.77.77,0,0,1,.344-.479.717.717,0,0,1,.569-.08.734.734,0,0,1,.459.351.787.787,0,0,1,.077.588.749.749,0,0,1-.719.594h-.183ZM-2,4.812a.794.794,0,0,1,.434,1A.81.81,0,0,1-2,6.321Zm6.428.927a.781.781,0,0,1-.542-.945A.746.746,0,0,1,4.8,4.23a.787.787,0,0,1,.525.9.771.771,0,0,1-.731.594H4.41Zm9,0a.788.788,0,0,1-.537-.951.736.736,0,0,1,.854-.46.769.769,0,0,1,.573.8.748.748,0,0,1-.731.582.428.428,0,0,1-.171,0Zm9.009,0a.765.765,0,0,1-.649-.814.741.741,0,0,1,1.482,0,.765.765,0,0,1-.649.814Zm9,0a.765.765,0,0,1-.649-.814.741.741,0,0,1,1.482,0,.765.765,0,0,1-.649.814.451.451,0,0,1-.206-.024ZM2.3,5.192a.787.787,0,0,1-.548-.951.74.74,0,0,1,.9-.558.733.733,0,0,1,.467.348.787.787,0,0,1,.081.591.749.749,0,0,1-.719.594H2.3Zm9-.059a.751.751,0,0,1-.624-.543.792.792,0,0,1,.228-.812.719.719,0,0,1,.807-.107.787.787,0,0,1,.52.869.763.763,0,0,1-.748.664Zm9,0a.8.8,0,0,1-.548-.951.751.751,0,0,1,.913-.558.734.734,0,0,1,.459.351.787.787,0,0,1,.077.588.749.749,0,0,1-.719.594Zm9,0a.781.781,0,0,1-.542-.945.746.746,0,0,1,.908-.564.785.785,0,0,1,.526.846.767.767,0,0,1-.709.687ZM.174,4.634a.734.734,0,0,1-.459-.351A.787.787,0,0,1-.363,3.7a.771.771,0,0,1,.337-.481.717.717,0,0,1,.565-.089.8.8,0,0,1,.548.951.759.759,0,0,1-.731.582.484.484,0,0,1-.183-.024Zm9,0a.746.746,0,0,1-.46-.358.8.8,0,0,1-.077-.592.746.746,0,0,1,.908-.564.781.781,0,0,1,.542.945.76.76,0,0,1-.731.594Zm9,0a.79.79,0,0,1-.537-.962.754.754,0,0,1,.925-.558.8.8,0,0,1,.548.951.748.748,0,0,1-.731.582h-.183Zm9.009,0a.745.745,0,0,1-.462-.35.8.8,0,0,1-.086-.588.745.745,0,0,1,.9-.57.779.779,0,0,1,.548.939.76.76,0,0,1-.731.594ZM-1.939,4.1-2,4.064V2.6a.745.745,0,0,1,.959.452.794.794,0,0,1-.434,1.01.638.638,0,0,1-.445,0Zm9,0a.745.745,0,0,1-.462-.35.8.8,0,0,1-.086-.588.743.743,0,0,1,.838-.572.766.766,0,0,1,.621.818.756.756,0,0,1-.729.716H7.059Zm9,0a.745.745,0,0,1-.462-.35.8.8,0,0,1-.086-.588.74.74,0,0,1,1.373-.212.8.8,0,0,1,.077.592.737.737,0,0,1-.719.582.453.453,0,0,1-.183-.048Zm9,0a.8.8,0,0,1-.548-.951.751.751,0,0,1,.913-.558.734.734,0,0,1,.459.351.787.787,0,0,1,.077.588.749.749,0,0,1-.719.594Zm9,0a.781.781,0,0,1-.542-.945.746.746,0,0,1,.908-.564h.16V4a.738.738,0,0,1-.525.059ZM4.935,3.541A.788.788,0,0,1,4.4,2.59a.759.759,0,0,1,.337-.478.706.706,0,0,1,.565-.08.787.787,0,0,1,.548.939.759.759,0,0,1-.731.582.516.516,0,0,1-.183,0Zm9,0A.781.781,0,0,1,13.39,2.6a.746.746,0,0,1,.908-.564.787.787,0,0,1,.548.939.771.771,0,0,1-.731.594Zm9,0a.835.835,0,0,1-.718-.886.81.81,0,0,1,1.619,0,.835.835,0,0,1-.718.886Zm9.009,0a.775.775,0,0,1-.541-.934.741.741,0,0,1,.9-.566.774.774,0,0,1,.547.93.76.76,0,0,1-.731.594ZM2.823,2.982a.761.761,0,0,1-.563-.628A.784.784,0,0,1,2.6,1.573a.718.718,0,0,1,.825.033.789.789,0,0,1,.285.807.738.738,0,0,1-.719.594Zm9,0a.787.787,0,0,1-.548-.951.742.742,0,0,1,.842-.559.767.767,0,0,1,.614.819A.756.756,0,0,1,12,3.006H11.82Zm9,0a.775.775,0,0,1-.541-.934.741.741,0,0,1,.9-.566.774.774,0,0,1,.547.93A.738.738,0,0,1,21,3.006h-.183Zm9,0a.8.8,0,0,1-.548-.951.751.751,0,0,1,.913-.558.734.734,0,0,1,.459.351.787.787,0,0,1,.077.588A.749.749,0,0,1,30,3.006h-.183ZM.7,2.436A.787.787,0,0,1,.151,1.5a.752.752,0,0,1,.913-.57.775.775,0,0,1,.537.939.749.749,0,0,1-.719.594Zm9,0a.734.734,0,0,1-.464-.355.788.788,0,0,1-.072-.6A.771.771,0,0,1,9.5,1a.717.717,0,0,1,.565-.089.8.8,0,0,1,.548.951.759.759,0,0,1-.731.582A.484.484,0,0,1,9.7,2.424Zm9,0a.788.788,0,0,1-.537-.951.759.759,0,0,1,.337-.478.706.706,0,0,1,.565-.08.787.787,0,0,1,.548.939.771.771,0,0,1-.731.594Zm9,0a.734.734,0,0,1-.459-.351.787.787,0,0,1-.077-.588.752.752,0,0,1,.9-.57.8.8,0,0,1,.548.951.759.759,0,0,1-.731.582.52.52,0,0,1-.183-.048Zm-29.1-.558A.73.73,0,0,1-1.9,1.541.787.787,0,0,1-2,.939.781.781,0,0,1-1.641.454.728.728,0,0,1-1.059.38a.787.787,0,0,1,.548.939.748.748,0,0,1-.731.582A.429.429,0,0,1-1.413,1.877Zm9,0A.787.787,0,0,1,7.036.939a.75.75,0,0,1,.9-.527.784.784,0,0,1,.565.9.771.771,0,0,1-.731.594Zm9,0a.788.788,0,0,1-.537-.951.758.758,0,0,1,.341-.47A.706.706,0,0,1,16.947.38a.787.787,0,0,1,.548.939.759.759,0,0,1-.731.582Zm9,0a.775.775,0,0,1-.537-.939.773.773,0,0,1,.925-.606.805.805,0,0,1,.582.962.771.771,0,0,1-.731.594ZM34.04.927a.771.771,0,0,1,.5-.547V1.865a.788.788,0,0,1-.537-.951Zm-28.568.4A.745.745,0,0,1,5,.976a.8.8,0,0,1-.081-.6A.771.771,0,0,1,5.26-.1.717.717,0,0,1,5.826-.19a.745.745,0,0,1,.462.35.8.8,0,0,1,.086.588.749.749,0,0,1-.719.594Zm9,0A.787.787,0,0,1,13.921.38.74.74,0,0,1,15.285.172a.8.8,0,0,1,.086.588.737.737,0,0,1-.719.582.451.451,0,0,1-.183-.024Zm9,0A.787.787,0,0,1,22.918.38a.752.752,0,0,1,.913-.57.775.775,0,0,1,.537.939.749.749,0,0,1-.719.594Zm9,0A.745.745,0,0,1,32,.976a.8.8,0,0,1-.081-.6.763.763,0,0,1,.913-.57.788.788,0,0,1,.537.951.737.737,0,0,1-.719.582.452.452,0,0,1-.183-.036ZM3.348.784A.8.8,0,0,1,2.8-.166a.751.751,0,0,1,.913-.558.734.734,0,0,1,.459.351A.787.787,0,0,1,4.25.214a.749.749,0,0,1-.719.594H3.348Zm9,0A.787.787,0,0,1,11.8-.154a.752.752,0,0,1,.913-.57.775.775,0,0,1,.537.939.738.738,0,0,1-.719.594h-.183Zm9,0a.79.79,0,0,1-.5-.962.759.759,0,0,1,.337-.478.706.706,0,0,1,.565-.08.745.745,0,0,1,.462.35A.8.8,0,0,1,22.29.2.76.76,0,0,1,21.56.8Zm9.009,0a.745.745,0,0,1-.462-.35A.8.8,0,0,1,29.8-.154a.752.752,0,0,1,.9-.57.787.787,0,0,1,.548.951.748.748,0,0,1-.731.582ZM1.236.226a.745.745,0,0,1-.462-.35A.8.8,0,0,1,.687-.713a.752.752,0,0,1,.9-.57.787.787,0,0,1,.548.951A.737.737,0,0,1,1.43.25a.45.45,0,0,1-.183,0Zm9,0a.745.745,0,0,1-.462-.35.8.8,0,0,1-.086-.588.742.742,0,0,1,.879-.57.745.745,0,0,1,.462.35.8.8,0,0,1,.086.588.749.749,0,0,1-.719.594H10.21Zm9,0a.787.787,0,0,1-.548-.939.763.763,0,0,1,.913-.57.788.788,0,0,1,.537.951.737.737,0,0,1-.719.582.483.483,0,0,1-.183,0Zm9,0a.758.758,0,0,1-.461-.365.812.812,0,0,1-.076-.6A.751.751,0,0,1,28.6-1.3a.788.788,0,0,1,.537.951.759.759,0,0,1-.731.582h-.183ZM-.854-.321a.788.788,0,0,1-.537-.951A.751.751,0,0,1-.477-1.83.788.788,0,0,1,.06-.879.759.759,0,0,1-.671-.3Zm9,0a.734.734,0,0,1-.459-.351.787.787,0,0,1-.077-.588.759.759,0,0,1,.337-.478.706.706,0,0,1,.565-.08.787.787,0,0,1,.548.939.756.756,0,0,1-.776.57.484.484,0,0,1-.171-.024Zm9,0A.775.775,0,0,1,16.6-1.26a.752.752,0,0,1,.9-.57.787.787,0,0,1,.548.939.771.771,0,0,1-.731.594Zm9.009,0a.745.745,0,0,1-.462-.35A.8.8,0,0,1,25.6-1.26a.771.771,0,0,1,.337-.481A.717.717,0,0,1,26.5-1.83a.745.745,0,0,1,.462.35.8.8,0,0,1,.086.588.76.76,0,0,1-.719.594ZM6-.808a.787.787,0,0,1-.548-.951h0A1.062,1.062,0,0,1,5.529-2h1.29a.774.774,0,0,1,.089.588.745.745,0,0,1-.351.47A.709.709,0,0,1,6-.808Zm9,0a.787.787,0,0,1-.548-.939,1.063,1.063,0,0,1,.08-.25h1.3a.8.8,0,0,1,.074.588.769.769,0,0,1-.348.469.717.717,0,0,1-.559.083Zm9,0a.8.8,0,0,1-.548-.951A.94.94,0,0,1,23.524-2h1.3a.8.8,0,0,1,.074.588.769.769,0,0,1-.348.469.76.76,0,0,1-.559.059Zm9,0a.746.746,0,0,1-.46-.358.8.8,0,0,1-.077-.592A.575.575,0,0,1,32.521-2h1.3a.8.8,0,0,1,.069.591.768.768,0,0,1-.355.467.727.727,0,0,1-.548.048Zm1.553-.475v.475a.741.741,0,0,1,0-.416ZM3.885-1.426A.769.769,0,0,1,3.325-2h1.53a.771.771,0,0,1-.337.481.717.717,0,0,1-.565.089Zm9,0a.77.77,0,0,1-.559-.594H13.8a.771.771,0,0,1-.337.481.717.717,0,0,1-.565.089Zm9,0A.792.792,0,0,1,21.32-2h1.473a.74.74,0,0,1-.9.558Zm9,0A.758.758,0,0,1,30.329-2h1.45a.752.752,0,0,1-.9.57ZM1.761-2h.5A.726.726,0,0,1,1.761-2Zm9,0a.384.384,0,0,1-.126,0h.617A.693.693,0,0,1,10.758-2Zm9,0h.537A.737.737,0,0,1,19.756-2Zm9,0h.468A.7.7,0,0,1,28.753-2Z" transform="translate(2.03 2.02)" fill="url(#linear-gradient-2)"/>
        <path id="Shape_new" data-name="Shape new" d="M25.95,19.61V12.243a4.588,4.588,0,0,0-2.192-3.969L17.512,4.507a4.215,4.215,0,0,0-4.385,0L6.882,8.274A4.588,4.588,0,0,0,4.69,12.243V19.61a4.588,4.588,0,0,0,2.192,3.969l6.246,3.767a4.215,4.215,0,0,0,4.385,0l6.246-3.767A4.613,4.613,0,0,0,25.95,19.61Z" transform="translate(2.983 3.133)" fill="#fff"/>
        <path id="G" d="M14.988,16.552a1.515,1.515,0,0,1-.285-.986,1.553,1.553,0,0,1,.285-1,.986.986,0,0,1,.834-.356h3.425a1.415,1.415,0,0,1,1.085.38,1.571,1.571,0,0,1,.388,1.129v4.087a2.6,2.6,0,0,1-.16.927,1.821,1.821,0,0,1-.468.7,2.675,2.675,0,0,1-.582.428,5.343,5.343,0,0,1-.948.44,10.863,10.863,0,0,1-1.359.345,9.784,9.784,0,0,1-1.77.131,8.9,8.9,0,0,1-3.151-.5A6.194,6.194,0,0,1,10,20.842a6.085,6.085,0,0,1-1.439-2.27A9.1,9.1,0,0,1,8,15.542,9.744,9.744,0,0,1,8.525,12.3a7.055,7.055,0,0,1,4.11-4.206,9.67,9.67,0,0,1,3.425-.582,7.622,7.622,0,0,1,1.37.119,6.077,6.077,0,0,1,1.142.285,5.6,5.6,0,0,1,.856.392,2.119,2.119,0,0,1,.548.416,1.75,1.75,0,0,1,.365.547,1.564,1.564,0,0,1,.114.689,1.318,1.318,0,0,1-.091.547,1.194,1.194,0,0,1-.251.4.983.983,0,0,1-.377.273,1.278,1.278,0,0,1-.48.083,1.105,1.105,0,0,1-.559-.131l-.651-.285a6.4,6.4,0,0,0-.913-.261,5.493,5.493,0,0,0-1.3-.119,4.231,4.231,0,0,0-1.667.3,3.417,3.417,0,0,0-1.29.879,3.921,3.921,0,0,0-.834,1.462,6.707,6.707,0,0,0-.3,2.115,7.239,7.239,0,0,0,.285,2.1,4.092,4.092,0,0,0,.822,1.462,3.423,3.423,0,0,0,1.313.927,4.66,4.66,0,0,0,1.758.309,5.564,5.564,0,0,0,.628,0l.468-.1.354-.119V16.921H15.821a.987.987,0,0,1-.834-.368" transform="translate(3.452 3.814)" fill="#292e3d"/>
      </g>
    </g>
  </g>
</svg>
